<?xml version="1.0" encoding="UTF-8"?>
<svg id="Layer_2" data-name="Layer 2" xmlns="http://www.w3.org/2000/svg" viewBox="0 0 2276.13 1532.47">
  <defs>
    <style>
      .cls-1 {
        stroke: #fbc343;
        stroke-width: 8.53px;
      }

      .cls-1, .cls-2, .cls-3 {
        fill: none;
        stroke-miterlimit: 10;
      }

      .cls-2 {
        stroke: #102048;
        stroke-width: 6px;
      }

      .cls-4, .cls-5, .cls-6, .cls-7, .cls-8, .cls-9, .cls-10, .cls-11, .cls-12, .cls-13, .cls-14, .cls-15, .cls-16, .cls-17, .cls-18, .cls-19, .cls-20, .cls-21 {
        stroke-width: 0px;
      }

      .cls-4, .cls-11 {
        fill: #fbc343;
      }

      .cls-5 {
        fill: #708cd5;
      }

      .cls-6 {
        opacity: .8;
      }

      .cls-6, .cls-10 {
        fill: #fff;
      }

      .cls-7 {
        fill: #1f3c88;
      }

      .cls-8, .cls-9 {
        fill: #ae5140;
      }

      .cls-8, .cls-16, .cls-17 {
        opacity: .6;
      }

      .cls-3 {
        stroke: #f0f0f0;
        stroke-width: 4.26px;
      }

      .cls-11, .cls-20 {
        opacity: .2;
      }

      .cls-12 {
        fill: #d3dfff;
      }

      .cls-13, .cls-20, .cls-21 {
        fill: #ee6f57;
      }

      .cls-14 {
        fill: #f9b384;
      }

      .cls-15, .cls-17 {
        fill: #e28b6d;
      }

      .cls-16, .cls-19 {
        fill: #102048;
      }

      .cls-18 {
        fill: #6f3428;
      }

      .cls-21 {
        opacity: .3;
      }
    </style>
  </defs>
  <g id="Layer_1-2" data-name="Layer 1">
    <g>
      <path class="cls-3" d="m84.75,935.4c-12.61,251.64,155.41,380.84,397.74,411.53,271.84,34.43,550.96-12.01,821.65-35.63,101.97-8.9,204.28-15.58,306.71-15.02,96.52.53,201.01,27.13,295.83,12.41,237.02-36.81,359.17-281.73,322.23-495.33-22.9-132.45-108.91-259.03-261.13-250.61-106.95,5.93-201.77,52.4-303.94,77.57-134.54,33.15-277.53,27.8-409.47-15.32-65.9-21.58-128.75-52.19-192.88-78.99-127.73-53.31-262.81-91.77-400.36-93.89-137.51-2.16-278.11,34.01-389.3,118.62-117.26,89.22-180.05,224.21-187.09,364.67Z"/>
      <g>
        <g>
          <path class="cls-18" d="m2011.89,1219.78s-94.23,66.45-202.47,8.87l101.24-56.49,101.24,47.62Z"/>
          <path class="cls-18" d="m1318.12,775.65s-91.68,171.94-62.98,222.73l104.39-57.95-41.41-164.77Z"/>
          <path class="cls-14" d="m1278.65,950.2c-11.47-8.57-22.52-18.21-33.13-28.7-20.9-20.72-40.13-44.78-57.65-70.45v-.04c-11.77-17.23-22.77-35.22-32.96-53.43-29.47-52.54-52.49-106.91-68.87-150.45-17.1-45.42-27.04-79.1-29.68-86.82-.3-.9-.51-1.45-.64-1.62l49.59-142.39c23.97-38.38,37.4,86.18,37.4,86.18,6.61-3.88,14.63-15.27,19.36-21.41,5.33-6.95,9.42,4.05,10.15,7.97,4.14,22.9-14.29,66.44-14.29,66.44l118.25,173.3c7.25,10.62,15.35,20.64,24.14,29.89,5.63,5.97,11.6,11.64,17.82,16.97,10.49,44.56,9.42,130.49-39.49,174.54Z"/>
          <path class="cls-17" d="m1278.65,950.2c-11.47-8.57-22.52-18.21-33.13-28.7,37.11-42.52,65.5-113.13,72.62-145.84,5.63,5.97-6.23-5.33,0,0,10.49,44.56,9.42,130.49-39.49,174.54Z"/>
          <path class="cls-13" d="m2011.9,1219.79c-64.6-12.58-115.52-11.77-158.51-3.24-15.61,3.11-30.15,7.21-43.97,12.11l-13.01,46.61-25.67,92.15-16.67,59.87-15.18,54.37-8.53,30.66h-458.25l72.49-472.66-89.47-41.28c5.76-8.49,11.04-18.46,15.95-29.51,27.16-61.19,41.75-153.94,47.04-193.22,25.59,22,55.73,38.46,88.61,47.85,39.02,11.13,86.05,20.77,130.06,19.74,1.54-.04,3.03-.09,4.52-.13,101.79-3.97,147.2,26.95,147.2,26.95,23.03,4.56,83.07,27.63,135.48,50.7,23.11,10.11,44.73,20.26,61.11,28.78,44.01,22.98,75.95,63.84,87.8,112.07l38.98,158.16Z"/>
          <path class="cls-8" d="m1853.4,1216.55c-15.61,3.11-30.15,7.21-43.97,12.11l27.59-98.98,16.37,86.86Z"/>
          <path class="cls-21" d="m1187.86,851.01c-11.77-17.23-20.99-32.79-43.11-72.05,34.7-11.88,55.44,39.26,43.11,72.05Z"/>
          <path class="cls-8" d="m1801.4,1257.43l-30.65,109.99-16.67,59.87-411.21,31.34-46.74-81.79c300.64-6.19,426.43-49.04,505.27-119.42Z"/>
          <path class="cls-17" d="m1086.03,647.14c-17.1-45.42-27.04-79.1-29.68-86.82l76.94-47.65c2.94,43.37-31.36,105.18-47.26,134.47Z"/>
          <path class="cls-9" d="m1572.64,949.83c4.49,15.96,14.15,29.9,26.81,39.97,12.71,10.05,28.02,16.66,43.99,19.51,15.97,2.9,32.6,2.14,48.35-2.07,7.89-2.07,15.56-5.09,22.8-8.97,7.34-3.73,14.17-8.45,20.69-13.66l2.28,2.43c-5.88,6.28-12.69,11.7-19.99,16.4-7.4,4.55-15.36,8.24-23.67,10.95-16.65,5.38-34.7,6.46-51.98,3.28-17.23-3.21-33.91-10.61-47.11-22.35-6.57-5.84-12.34-12.64-16.73-20.24-4.29-7.64-7.4-15.96-8.7-24.52l3.26-.71Z"/>
        </g>
        <g>
          <path class="cls-14" d="m1759.54,786.92l-12.75,99.66c-4.73,37.23-36.97,64.86-74.5,63.84-40.21-1.07-71.21-34.11-71.21-72.96,0-3.8.3-7.68.9-11.56l2.3-14.58,9-56.84,50.66-2.6,95.61-4.95Z"/>
          <path class="cls-19" d="m1582.11,622.73c1.42-14.69,8.29-32.2,16.12-48.08,14.97-30.35,43.95-51.42,77.44-56.25,50.32-7.25,115.37-.18,150.8,48.14,39.94,54.48,6.75,163.41-36.07,172.7-42.82,9.29-208.29-116.51-208.29-116.51Z"/>
          <path class="cls-15" d="m1713.27,812.51c-17.1,16.2-56.5,54.11-111.3,53.39l11.3-71.43,50.66-2.6,49.34,20.64Z"/>
          <path class="cls-14" d="m1786.19,648.42l-7.63,39.7-1.88,9.72-7.51,39.06-4.31,22.39-5.33,27.63-26.06,15.65s-7.12,4.78-20.21,9.94c0,0,0,.04-.04.04-19.74,7.85-53.05,16.55-95.78,10.92-2.98-.38-5.8-1.07-8.44-2-20.13-6.87-30.45-28.06-34.97-54.46-3.33-19.4-3.58-41.62-2.35-63.07,1.92-33.65,7.51-65.42,10.4-81.19,44.82-40.04,106.01-47.33,151.38-56.2l52.71,81.88Z"/>
          <path class="cls-19" d="m1582.11,622.73c71.39-56.19,167.56.73,167.56.73,0,0-14.71,88.5,13.72,81.2,28.43-7.31,57.28-66.47,57.28-66.47l-65.07-93.82-142.35,24.52-31.14,53.84Z"/>
          <path class="cls-14" d="m1759.72,707.57c13.99-24.56,41.22-32.44,55.85-13.81,14.64,18.63,15.2,77.25-56.78,64.59l.93-50.78Z"/>
          <g>
            <path class="cls-15" d="m1640.03,688.17c-4.63,12.52-11.8,23.67-16.48,35.41-.54,1.42-1.23,3.05-1.57,4.3-.38,1.24-.58,2.45-.37,3.37.03.99.6,1.68,1.29,2.5.86.71,1.93,1.43,3.28,1.94,5.37,2.06,12.02,2.57,18.49,3.21l.06,2.5c-6.56.86-13.3,1.65-20.44-.42-1.79-.47-3.61-1.41-5.31-2.72-1.61-1.43-3.19-3.5-3.5-5.83-.49-2.29-.1-4.43.41-6.31.52-1.9,1.09-3.31,1.76-4.93,5.25-12.6,13.05-23.21,20.14-34.13l2.24,1.12Z"/>
            <path class="cls-19" d="m1687.9,690.81c-1.75,5.9-6.56,9.69-10.75,8.45-4.19-1.24-6.17-7.03-4.43-12.94,1.75-5.9,6.56-9.69,10.75-8.45,4.19,1.24,6.17,7.03,4.43,12.94Z"/>
            <ellipse class="cls-19" cx="1604.48" cy="684.97" rx="11.15" ry="7.91" transform="translate(492.51 2029.23) rotate(-73.52)"/>
            <path class="cls-19" d="m1661.22,668.03c3.6-3.42,7.86-6.26,12.67-8.16,4.79-1.92,10.2-2.73,15.51-2.08,5.32.63,10.36,2.77,14.54,5.8,4.2,3.02,7.63,6.83,10.27,11.04l-1.88,1.65c-3.79-2.96-7.48-5.77-11.41-7.95-3.92-2.17-8.05-3.67-12.31-4.22-4.26-.58-8.65-.16-13,.95-4.36,1.13-8.63,2.99-12.96,5.03l-1.42-2.06Z"/>
            <path class="cls-19" d="m1623.64,668.37c-3.48-5.55-9.17-8.2-15-8.18-2.91,0-5.82.69-8.63,1.92-2.81,1.24-5.47,3.01-8.27,5.04l-1.95-1.56c1.66-3.31,4.23-6.27,7.53-8.41,3.27-2.15,7.28-3.4,11.34-3.35,4.05.04,8.14,1.31,11.36,3.81,3.23,2.43,5.56,6.11,5.99,9.96l-2.38.78Z"/>
            <path class="cls-10" d="m1612.85,759.83l46.41.98s-25.73,34.9-44.62,2.42l-1.78-3.4Z"/>
            <path class="cls-15" d="m1770.84,726.3c.03-4,.74-8.03,2.17-11.91,1.42-3.88,3.67-7.64,7.02-10.62,3.31-2.98,7.97-4.87,12.53-4.65,4.57.15,8.62,2.2,11.66,4.89l-1.25,2.16c-3.62-1.09-7.1-1.83-10.29-1.43-3.17.38-6,1.71-8.45,3.82-2.48,2.1-4.5,4.98-6.25,8.1-1.74,3.15-3.16,6.57-4.68,10.12l-2.46-.47Z"/>
            <circle class="cls-21" cx="1713" cy="740.21" r="32.69"/>
            <path class="cls-21" d="m1596.98,735.79c0,14.63-9.68,27.04-22.94,31.22-3.33-19.4-3.58-41.62-2.35-63.07,14.5,3.37,25.29,16.33,25.29,31.85Z"/>
          </g>
        </g>
      </g>
      <g>
        <path class="cls-19" d="m939.25,599.77s93.07,45.56,75.82,121.14l-61.56,17.23-14.26-138.38Z"/>
        <path class="cls-14" d="m939.25,599.77c9.99-9.84,61.21-66.43,59.42-137.17-1.36-53.64,22.43-29.41,25.49,7.6,0,0,13.08-75.7,49.14-68.03l-10.6,14.51s13.67-25.64,24.71-18.78c11.03,6.86,1.04,28.79,1.04,28.79,0,0,5.15-19.02,14.61-20.47,9.46-1.45,18.14,28.35-3.02,106.1,0,0,22.93-22.73,31.98-26.57,9.06-3.84,8.45,55.65-55.81,118.96-64.25,63.31-109.71,112.28-109.71,112.28l-27.25-117.24Z"/>
        <path class="cls-5" d="m564.23,909.9c2.26,3.49,375.02-310.13,375.02-310.13l75.82,121.14-380.48,448.05-70.36-259.06Z"/>
        <g>
          <path class="cls-15" d="m1073.96,402.69c-4.44,6.85-8.55,13.97-12.33,21.2-3.72,7.27-7.25,14.64-10.19,22.24-3.12,7.53-5.62,15.29-7.71,23.16l-1.53,5.92-1.18,5.99c-1.01,3.98-1.22,8.06-1.98,12.1l-1.66-.09c.1-8.3.87-16.66,2.73-24.79,1.84-8.13,4.26-16.15,7.41-23.86,3.21-7.68,6.73-15.24,10.96-22.41,4.2-7.18,8.79-14.1,14.17-20.49l1.32,1.02Z"/>
          <path class="cls-15" d="m1089.26,426.92c-1.24,6.76-2.7,13.47-4.19,20.16-1.45,6.71-3.17,13.34-4.7,20.03l-5.08,19.93c-1.79,6.62-3.56,13.24-5.55,19.82l-1.63-.35c.89-6.84,2.19-13.59,3.55-20.33,1.42-6.72,2.98-13.41,4.6-20.08,1.75-6.64,3.38-13.31,5.31-19.9,1.89-6.6,3.84-13.19,6.07-19.7l1.61.42Z"/>
          <path class="cls-15" d="m1111.87,409.31c2.43,23.32,1.37,46.85-2.07,70.05-.95,5.79-1.95,11.58-3.34,17.29-.66,2.86-1.37,5.71-2.19,8.54l-.59,2.13-.27.99c.04-.09.02-.34-.08-.49-.13-.31-.69-.4-.97-.19l1.5-1.32c4.37-3.87,8.78-7.7,13.25-11.47l6.78-5.59c1.2-.95,2.19-1.76,3.61-2.79,2-1.37,4.89-1.13,6.65.57.9.74,1.48,2.21,1.59,3l.43,2.27c.16,1.52.42,3.04.44,4.55.09,1.52.14,3.03.05,4.54-.03,1.51-.09,3.02-.29,4.5-.53,5.99-1.95,11.82-3.74,17.47-3.67,11.3-8.98,21.92-15.17,31.91-6.23,9.98-13.33,19.33-20.77,28.37-3.76,4.48-7.78,8.74-11.65,13.12l-12.23,12.55-1.19-1.17,11.7-12.93c3.69-4.49,7.51-8.86,11.07-13.44,7.18-9.1,14-18.49,19.91-28.41,5.81-9.96,11.05-20.28,14.46-31.2,1.69-5.45,3-11.02,3.45-16.65.18-1.4.22-2.81.24-4.21.08-1.41.02-2.8-.07-4.19-.02-1.4-.28-2.76-.42-4.14l-.39-2.02c-.13-.65-.15-.58-.35-.83-.34-.34-.99-.43-1.42-.13l-3.31,2.54-6.74,5.48c-4.46,3.71-8.87,7.5-13.25,11.32l-1.8,1.55c-1.45,1.17-3.9.64-4.77-.95-.49-.77-.6-1.8-.38-2.59l.31-1.12.59-2.08c.82-2.76,1.54-5.56,2.21-8.37,1.38-5.61,2.51-11.28,3.55-16.97,1.96-11.41,3.22-22.95,3.92-34.52.7-11.57.96-23.22.08-34.77l1.66-.17Z"/>
        </g>
      </g>
      <g>
        <g>
          <path class="cls-4" d="m413.7,1182.23s-128.79-50.8-181.38,46.39c-66.13,122.21,33.24,265.81,33.24,265.81h174.8l-26.66-312.2Z"/>
          <path class="cls-19" d="m287.63,1222.3c-3.28,3.4-6.08,7.24-8.6,11.24-2.54,3.99-4.63,8.26-6.54,12.6-3.77,8.7-6.65,17.79-8.65,27.08-4.02,18.57-5.3,37.7-4.41,56.7.83,19.02,4.02,37.89,8.77,56.35,4.85,18.45,11.58,36.39,19.58,53.78l-1.49.75c-2.18-4.29-4.49-8.53-6.44-12.93-1-2.19-2.08-4.35-3-6.58l-2.83-6.66c-3.54-8.97-6.73-18.09-9.42-27.38-5.23-18.6-8.59-37.78-9.42-57.14-.84-19.33.55-38.85,5.14-57.71,2.27-9.42,5.39-18.67,9.53-27.46,2.12-4.37,4.44-8.66,7.21-12.67,2.73-4.03,5.81-7.84,9.39-11.17l1.16,1.2Z"/>
        </g>
        <path class="cls-9" d="m745.91,756.01c42.23,25.77,71.43,10.45,79.96-17.37,8.53-27.82,39.71-132.61-90.62-115.72,0,0-159.71-64.4-227.3,30.61-59.62,83.81-4.92,141.75-96.02,211.25-63.52,48.46-135.54,133.6,7.31,279.2l154.94-42.68,171.73-345.29Z"/>
        <path class="cls-18" d="m697.79,877.53c3.16,14.75,37.33,52.93,51.01,67.25,41.34,43.3,50.47,124.52-67.41,149.35l-66.32-154.48,82.72-62.11Z"/>
        <polygon class="cls-14" points="703.67 896.84 689.73 961.02 668.07 1060.89 547.17 1035.35 575.62 839.49 698.9 894.71 703.67 896.84"/>
        <path class="cls-15" d="m778.06,769.96s34.89,39.12,33.66,49.07c-1.23,9.96-33.66,27.8-33.66,27.8v-76.87Z"/>
        <path class="cls-15" d="m703.67,896.84l-13.94,64.18c-37.18-19.79-64.31-68.74-64.31-68.74l73.47,2.43,4.78,2.13Z"/>
        <path class="cls-14" d="m786.23,858.98c-4.9,37.19-17.27,65.76-43.71,68.31-73.09,7.08-178.29-74.8-178.29-74.8l5.67-149.93,79.49-49.04,128.66,23.88c1.54,16.93,9.42,68.7,10.7,120.77.51,20.98-.04,42-2.52,60.81Z"/>
        <path class="cls-9" d="m798.26,702.56l-15.86,12.21c-82.69-64.52-65.55,28.43-73.22,58.19-7.68,29.76-46.87,21.92-77.44,2.69l-5.46,41.66-91.9,2.9-5.33-116.46,91.64-71.64,169.64,33.09,7.93,37.36Z"/>
        <path class="cls-9" d="m679.54,1134.99c45.14-24.21,32.34-87.42,14.77-109.05-17.57-21.63-92.24-57.92-101.29-126.03-5.04-37.88,33.26-82.6,33.26-82.6l-77.68-41.68-79.6,125.15,60.06,214.93,150.49,19.27Z"/>
        <path class="cls-5" d="m735.78,1481.87l-378.89.26c-16.55-242.6,43.92-366.65,96.2-427.58,32.92-38.34,82.64-57.31,132.79-51.17,43.62,5.37,81.49,26.1,119.87,116.42l-179.36,83.41,115.14,202.73c11.56,20.38,28.32,37.36,48.53,49.21l45.71,26.74Z"/>
        <path class="cls-7" d="m526.41,1203.19s56.38,225.65,77.27,255.35c21.75,30.92,68.45,23.15,149.85,23.33,252.06.54,0,0,0,0l-102.83-229.08-124.29-49.59"/>
        <path class="cls-5" d="m986.37,1420.53l-16.29,59.96-216.56,1.38h-17.74l-45.71-26.74c-20.21-11.86-36.97-28.83-48.53-49.21l-115.14-202.73,179.36-83.41c19.27,45.24,38.63,108.02,58.89,195.01,2.73,11.73,10.87,21.53,21.92,26.35l199.8,79.39Z"/>
        <path class="cls-14" d="m650.7,792.14c-6.51-36.13-49.38-40.91-56.84-16.5-7.46,24.41-5.64,66.35,48.2,63.87l8.64-47.36Z"/>
        <path class="cls-15" d="m633.5,794.98l-6.71-7.66c-2.23-2.39-4.54-4.68-6.94-6.05-2.45-1.37-4.39-1.76-6.64-.56-2.31,1.17-4.52,3.67-6.81,6.23l-2.24-1.12c.95-3.51,2.51-7.13,6.01-9.84,1.68-1.41,4.16-2.16,6.54-2.19,2.4.12,4.61.88,6.36,1.99,3.57,2.2,6.03,5.14,8.03,8.2,1.99,3.08,3.54,6.35,4.58,9.79l-2.19,1.21Z"/>
        <path class="cls-20" d="m784.34,870.88c-1.83.38-36.21-9.48-36.21-41.86,0-17.27,15.12-32,32.39-32,2.86,0,5.63.38,8.23,1.15.51,20.98.07,52.41-4.41,72.71Z"/>
      </g>
      <g>
        <polygon class="cls-7" points="1408.91 1484.18 958.19 1484.18 1043.33 1117.47 1494.05 1117.47 1408.91 1484.18"/>
        <path class="cls-16" d="m1408.91,1484.18l85.14-366.72c-128.83,298.12-320.26,331.16-535.86,366.72"/>
        <ellipse class="cls-10" cx="1226.12" cy="1300.83" rx="32.13" ry="27.04" transform="translate(-447.65 1928.51) rotate(-67.25)"/>
      </g>
      <g>
        <path class="cls-14" d="m1967.55,1212.97l-1.36,37.27-6.14,167.03v.21c-.51,12.62-3.84,24.82-9.51,35.82-5.67,10.92-13.77,20.64-23.84,28.36h-187.8l-392.23,1.32c-6.99,0-14.16-16.29-3.8-24.35,22.9-17.91,58.76-37.61,83.71-53.56,13.77-8.78,30.19-12.62,46.4-10.53,26.99,3.45,65.93,17.14,114.37,2.86,8.4-2.47,16.93-4.39,25.54-5.71l157.87-24.26,62.13-9.55,1.75-105.24.55-31.85c5.93-1.58,11.98-2.98,18.21-4.22,32.62-6.48,69.85-8.49,114.16-3.58Z"/>
        <path class="cls-17" d="m1967.55,1212.97l-1.36,37.27c-22.94-8.06-111.56-33.26-131-29.47h0c5.93-1.58,11.98-2.98,18.21-4.22,32.62-6.48,69.85-8.49,114.16-3.58Z"/>
        <path class="cls-21" d="m1960.05,1417.28v.21c-.51,12.62-3.84,24.82-9.51,35.82-5.67,10.92-13.77,20.64-23.84,28.36h-57.06c9.98-54.88,51.56-71.94,90.4-64.39Z"/>
        <path class="cls-15" d="m1809.03,1360.29c6.67-2.69,13.67-4.97,20.93-5.81,7.22-1.13,14.61-1.08,21.88-.3,7.28.76,14.46,2.47,21.28,5.03,6.85,2.52,13.33,5.9,19.17,10.4l-1.38,2.08c-6.27-2.93-12.92-5.23-19.54-7.15-6.65-1.9-13.42-3.3-20.25-4.05-6.83-.81-13.73-1.07-20.62-.6-6.92.27-13.75,1.51-20.71,2.76l-.77-2.38Z"/>
      </g>
      <g>
        <rect class="cls-12" y="1482.04" width="2276.13" height="50.44"/>
        <line class="cls-2" y1="1482.12" x2="2276.13" y2="1482.12"/>
      </g>
      <g>
        <path class="cls-11" d="m1176.23,195.37c0,43.77-29.93,85.2-69.64,97.55h-53.71c-41.34-11.32-71.74-52.61-71.74-97.55,0-53.87,43.67-97.55,97.55-97.55s97.55,43.67,97.55,97.55Z"/>
        <g>
          <line class="cls-1" x1="1078.69" x2="1078.69" y2="72.83"/>
          <line class="cls-1" x1="1010.36" y1="93.52" x2="946.52" y2="45.86"/>
          <line class="cls-1" x1="1147.01" y1="93.52" x2="1210.85" y2="45.86"/>
          <line class="cls-1" x1="1043.93" y1="80.03" x2="1030.62" y2="45.86"/>
          <line class="cls-1" x1="1113.44" y1="80.03" x2="1126.75" y2="45.86"/>
        </g>
        <g>
          <path class="cls-4" d="m1141.06,207.73c0-33.05-29.63-59.65-65.5-58.02-31.82,1.45-57.85,25.88-59.19,55.53-.74,16.54,5.95,31.6,17.22,42.57,11.95,11.63,19.29,26.7,19.29,42.79v2.31h53.71v-4.79c0-15.38,6.82-29.83,18.01-41.14,10.21-10.33,16.46-24.1,16.46-39.25Z"/>
          <path class="cls-4" d="m1051.83,312.43h53.71v1.33c0,14.82-12.03,26.86-26.86,26.86h0c-14.82,0-26.86-12.03-26.86-26.86v-1.33h0Z"/>
        </g>
        <circle class="cls-6" cx="1058.68" cy="199.18" r="14.75"/>
      </g>
    </g>
  </g>
</svg>