<svg width="200" height="195" viewBox="0 0 200 195" fill="none" xmlns="http://www.w3.org/2000/svg">
<path d="M11.7701 75.2635H21.6313L20.7627 79.6866H2.99933L3.70269 76.1698L14.3947 67.7909C17.0382 65.6761 17.8454 64.4393 17.8454 62.8957C17.8454 61.3521 16.67 60.3135 14.3947 60.3135C13.4344 60.328 12.4892 60.5552 11.6272 60.9788C10.7652 61.4025 10.0079 62.012 9.40982 62.7635L5.75612 60.1153C7.64434 57.5331 11.1517 55.8243 15.1972 55.8243C20.1585 55.8243 23.4062 58.4725 23.4062 62.1262C23.4062 64.9066 22.1364 67.2527 18.0106 70.4391L11.7701 75.2635Z" fill="#D9EBFF"/>
<path d="M45.1254 74.7631H41.2735L40.301 79.6867H35.0046L36.0101 74.7631H23.3732L24.0765 71.1094L37.8888 56.2256H43.8178L30.9496 70.3353H37.1147L37.988 65.9452H43.0484L42.1751 70.3353H46.0318L45.1254 74.7631Z" fill="#D9EBFF"/>
<path d="M60.6088 51.4673H65.504L48.2787 83.0382H43.3977L60.6088 51.4673Z" fill="#D9EBFF"/>
<path d="M82.9653 56.2256L82.2619 59.7471L69.7289 79.6867H63.696L75.724 60.6487H68.1192L67.345 64.4724H62.5206L64.1681 56.2256H82.9653Z" fill="#D9EBFF"/>
<path d="M0.804321 98.1959L2.178 95.5902C3.4023 96.3724 4.82262 96.7929 6.27543 96.8033C7.61606 96.8033 8.39023 96.3832 8.39023 95.7129C8.39023 94.056 2.40458 94.9718 2.40458 91.1009C2.40458 88.4433 4.67516 86.7014 8.31942 86.7014C9.86503 86.6501 11.396 87.0153 12.752 87.7588L11.4869 90.3456C10.471 89.7203 9.29985 89.3932 8.107 89.4015C6.66251 89.4015 5.88834 89.9302 5.88834 90.6005C5.88834 92.2905 11.874 91.3228 11.874 95.1228C11.874 97.7616 9.55148 99.5035 5.94499 99.5035C3.83019 99.5129 1.91365 98.9512 0.804321 98.1959Z" fill="#D9EBFF"/>
<path d="M18.0815 89.6423L17.6802 91.7193H23.1513L22.6274 94.3203H17.1515L16.7078 96.5768H23.1702L22.6038 99.2675H12.7142L15.1972 86.9705H24.8413L24.2937 89.6659L18.0815 89.6423Z" fill="#D9EBFF"/>
<path d="M33.8292 95.5713L35.9251 99.2675H32.2808L30.4493 95.9961H28.6932L28.0418 99.2675H24.558L27.0174 86.9705H32.2808C35.4294 86.9705 37.2421 88.4338 37.2421 90.898C37.2669 91.9439 36.9458 92.9689 36.3287 93.8138C35.7117 94.6587 34.8331 95.2765 33.8292 95.5713ZM31.7899 89.6942H29.9583L29.2361 93.3007H31.3131C32.8473 93.3007 33.7442 92.5643 33.7442 91.2095C33.7253 90.171 32.9842 89.6942 31.7899 89.6942Z" fill="#D9EBFF"/>
<path d="M52.5131 86.9705L44.8139 99.2675H41.382L38.5591 86.9705H42.1326L43.8934 94.9954L48.9255 86.9705H52.5131Z" fill="#D9EBFF"/>
<path d="M53.2495 86.9705H56.7379L54.2549 99.2675H50.7712L53.2495 86.9705Z" fill="#D9EBFF"/>
<path d="M57.2808 94.0938C57.2808 89.8169 60.4294 86.7014 65.0036 86.7014C67.2742 86.7014 69.1247 87.5322 70.0027 89.0239L67.4725 91.0301C67.1898 90.5723 66.789 90.1992 66.3121 89.9499C65.8353 89.7007 65.3001 89.5847 64.7629 89.614C62.3696 89.614 60.7835 91.4597 60.7835 93.886C60.7835 95.543 61.9117 96.6523 63.7952 96.6523C64.3702 96.655 64.9386 96.5293 65.4588 96.2843C65.9791 96.0393 66.438 95.6812 66.8021 95.2361L68.8603 97.2565C67.4725 98.9323 65.6598 99.546 63.46 99.546C59.693 99.5129 57.2808 97.3132 57.2808 94.0938Z" fill="#D9EBFF"/>
<path d="M75.0867 89.6423L74.6807 91.7193H80.1519L79.642 94.3203H74.152L73.713 96.5768H80.1707L79.609 99.2675H69.7383L72.193 86.9705H81.8371L81.2942 89.6659L75.0867 89.6423Z" fill="#D9EBFF"/>
<path d="M14.2012 49.2817H7.32336C7.32336 39.7084 11.1989 29.9275 17.954 22.4218C25.0632 14.5338 34.2918 10.1909 43.917 10.1909C63.5875 10.1909 77.329 24.5508 77.329 45.1229H70.4653C70.4653 28.3508 59.8016 17.0829 43.9311 17.0829C28.3722 17.0687 14.2012 32.4199 14.2012 49.2817Z" fill="#FF725E"/>
<path d="M17.9729 47.3698C19.0728 47.3698 19.965 47.4784 19.9602 47.5775C19.9555 47.6767 19.0681 47.7522 17.9729 47.7522C16.8777 47.7522 15.9808 47.6625 15.9808 47.5445C15.9808 47.4265 16.8777 47.3509 17.9729 47.3698Z" fill="#263238"/>
<path d="M22.7218 32.2925C23.6659 32.8967 24.3032 33.5151 24.1993 33.6803C24.0954 33.8455 23.2552 33.5104 22.3111 32.9392C21.367 32.368 20.7391 31.7402 20.8383 31.5513C20.9374 31.3625 21.8013 31.693 22.7218 32.2925Z" fill="#263238"/>
<path d="M34.6175 21.9025C35.0659 22.908 35.2878 23.7908 35.0895 23.8663C34.8913 23.9418 34.3862 23.2101 33.9047 22.2235C33.4232 21.2369 33.2013 20.3353 33.4326 20.2598C33.6639 20.1843 34.1738 20.8829 34.6175 21.9025Z" fill="#263238"/>
<path d="M50.2897 20.6658C50.0159 21.7326 49.6429 22.554 49.4588 22.5162C49.2747 22.4784 49.3125 21.5721 49.5485 20.4911C49.7846 19.4101 50.1528 18.6029 50.3794 18.6454C50.6059 18.6879 50.5635 19.6036 50.2897 20.6658Z" fill="#263238"/>
<path d="M63.0918 29.6631C62.176 30.2673 61.3499 30.6355 61.2414 30.4845C61.1328 30.3334 61.7701 29.682 62.6575 29.0353C63.545 28.3886 64.3758 28.0251 64.508 28.2139C64.6401 28.4027 64.0076 29.0542 63.0918 29.6631Z" fill="#263238"/>
<path d="M67.3072 44.4856C66.2121 44.4856 65.3199 44.4006 65.3199 44.3062C65.3199 44.2118 66.2073 44.1174 67.3072 44.1032C68.4071 44.0891 69.2946 44.1693 69.2993 44.2826C69.304 44.3959 68.4166 44.4856 67.3072 44.4856Z" fill="#263238"/>
<path d="M42.0523 46.5343C41.7097 46.5367 41.3765 46.4217 41.1082 46.2086L29.5476 37.2396C29.2271 36.9892 29.0192 36.6217 28.9696 36.218C28.9201 35.8144 29.0329 35.4075 29.2833 35.087C29.5337 34.7665 29.9011 34.5586 30.3048 34.509C30.7085 34.4594 31.1153 34.5723 31.4358 34.8227L41.9815 42.9986L56.5444 29.6253C56.8417 29.3493 57.2365 29.2026 57.642 29.2177C58.0475 29.2327 58.4303 29.4082 58.7064 29.7056C58.9824 30.0029 59.1291 30.3978 59.114 30.8032C59.099 31.2087 58.9235 31.5915 58.6261 31.8676L43.1097 46.1236C42.8224 46.3902 42.4442 46.5371 42.0523 46.5343Z" fill="#FF725E"/>
<path d="M49.8932 0.079483H36.6379C36.432 0.079483 36.265 0.246447 36.265 0.452406V5.25319C36.265 5.45915 36.432 5.62612 36.6379 5.62612H49.8932C50.0992 5.62612 50.2661 5.45915 50.2661 5.25319V0.452406C50.2661 0.246447 50.0992 0.079483 49.8932 0.079483Z" fill="#FF725E"/>
<path d="M46.8815 2.85516H39.6449V9.41671H46.8815V2.85516Z" fill="#FF725E"/>
<path d="M13.3941 17.0545L7.95819 23.7865C7.7469 24.0482 7.78774 24.4316 8.0494 24.6428L11.7662 27.644C12.0278 27.8553 12.4112 27.8145 12.6225 27.5528L18.0585 20.8208C18.2697 20.5591 18.2289 20.1757 17.9672 19.9644L14.2505 16.9632C13.9888 16.752 13.6054 16.7928 13.3941 17.0545Z" fill="#FF725E"/>
<path d="M49.8932 5.62611C49.8932 5.70636 46.9239 5.76773 43.2844 5.76773C39.6449 5.76773 36.6757 5.70636 36.6757 5.62611C36.6757 5.54587 39.6402 5.4845 43.2844 5.4845C46.9287 5.4845 49.8932 5.55059 49.8932 5.62611Z" fill="#263238"/>
<path d="M13.2712 26.3965C13.1957 26.4814 12.1949 25.7167 10.9582 24.7868C9.72137 23.8568 8.7159 23.1015 8.77726 23.0071C8.83863 22.9127 9.94796 23.5264 11.1989 24.4658C12.4498 25.4051 13.342 26.3162 13.2712 26.3965Z" fill="#263238"/>
<path d="M14.4231 24.7018C14.3476 24.7868 13.3468 24.0221 12.11 23.0921C10.8732 22.1622 9.86304 21.4069 9.92441 21.3125C9.98578 21.2181 11.0998 21.8317 12.3508 22.7758C13.6017 23.7199 14.4939 24.6216 14.4231 24.7018Z" fill="#263238"/>
<path d="M15.8345 23.2809C15.7637 23.3659 14.7629 22.6012 13.5262 21.6712C12.2894 20.7413 11.2981 19.986 11.3405 19.8916C11.383 19.7972 12.516 20.4108 13.7622 21.3549C15.0084 22.299 15.91 23.2007 15.8345 23.2809Z" fill="#263238"/>
<path d="M17.2035 21.5863C17.1327 21.6712 16.1272 20.9065 14.8904 19.9765C13.6537 19.0466 12.6482 18.2913 12.7143 18.1969C12.7804 18.1025 13.8897 18.7162 15.1359 19.6603C16.3821 20.6044 17.2743 21.506 17.2035 21.5863Z" fill="#263238"/>
<path d="M76.5392 19.1822L70.6879 12.8079C70.4605 12.5601 70.0753 12.5436 69.8275 12.771L66.3082 16.0015C66.0605 16.229 66.044 16.6142 66.2714 16.8619L72.1227 23.2363C72.3501 23.4841 72.7353 23.5005 72.9831 23.2731L76.5024 20.0426C76.7501 19.8152 76.7666 19.43 76.5392 19.1822Z" fill="#FF725E"/>
<path d="M67.3166 17.6824C67.2458 17.5974 68.1475 16.7383 69.2521 15.6337C70.3567 14.529 71.2489 13.6652 71.3338 13.7454C71.4188 13.8257 70.6494 14.8312 69.5306 15.9263C68.4118 17.0215 67.3827 17.7626 67.3166 17.6824Z" fill="#263238"/>
<path d="M68.8225 19.0702C68.747 18.9852 69.6533 18.1261 70.7532 17.0215C71.8531 15.9169 72.7547 15.053 72.8397 15.1333C72.9247 15.2135 72.1505 16.219 71.0365 17.3142C69.9224 18.4093 68.8886 19.1505 68.8225 19.0702Z" fill="#263238"/>
<path d="M70.0168 20.6799C69.9413 20.595 70.8476 19.7358 71.9475 18.6312C73.0474 17.5266 73.949 16.6627 74.034 16.743C74.1189 16.8232 73.3448 17.824 72.226 18.9192C71.1072 20.0143 70.0829 20.7602 70.0168 20.6799Z" fill="#263238"/>
<path d="M71.4896 22.2991C71.4141 22.2141 72.3205 21.355 73.4203 20.2504C74.5202 19.1457 75.4218 18.2819 75.5068 18.3621C75.5918 18.4424 74.8176 19.4479 73.6988 20.543C72.5801 21.6382 71.5557 22.3652 71.4896 22.2991Z" fill="#263238"/>
<path d="M38.1249 5.6214C38.0163 5.6214 37.9266 4.39406 37.9266 2.88821C37.9266 1.38236 38.0163 0.150299 38.1249 0.150299C38.2335 0.150299 38.3279 1.37764 38.3279 2.88821C38.3279 4.39878 38.2382 5.6214 38.1249 5.6214Z" fill="#263238"/>
<path d="M40.7211 5.6214C40.6126 5.6214 40.5229 4.39406 40.5229 2.88821C40.5229 1.38236 40.6126 0.150299 40.7211 0.150299C40.8297 0.150299 40.9194 1.37764 40.9194 2.88821C40.9194 4.39878 40.8297 5.6214 40.7211 5.6214Z" fill="#263238"/>
<path d="M43.3128 5.6214C43.2042 5.6214 43.1145 4.39406 43.1145 2.88821C43.1145 1.38236 43.2042 0.150299 43.3128 0.150299C43.4213 0.150299 43.511 1.37764 43.511 2.88821C43.511 4.39878 43.4261 5.6214 43.3128 5.6214Z" fill="#263238"/>
<path d="M45.909 5.6214C45.7957 5.6214 45.7108 4.39406 45.7108 2.88821C45.7108 1.38236 45.7957 0.150299 45.909 0.150299C46.0223 0.150299 46.1073 1.37764 46.1073 2.88821C46.1073 4.39878 46.0176 5.6214 45.909 5.6214Z" fill="#263238"/>
<path d="M48.5006 5.6214C48.3921 5.6214 48.3024 4.39406 48.3024 2.88821C48.3024 1.38236 48.3921 0.150299 48.5006 0.150299C48.6092 0.150299 48.6989 1.37764 48.6989 2.88821C48.6989 4.39878 48.5903 5.6214 48.5006 5.6214Z" fill="#263238"/>
<path d="M44.8582 46.9294C46.2113 45.5763 46.2113 43.3825 44.8582 42.0294C43.5051 40.6762 41.3112 40.6762 39.9581 42.0294C38.605 43.3825 38.605 45.5763 39.9581 46.9294C41.3112 48.2826 43.5051 48.2826 44.8582 46.9294Z" fill="#FF725E"/>
<path d="M45.8713 44.4856C45.8382 44.4856 45.843 44.1788 45.6966 43.6548C45.4867 42.9236 45.0401 42.2827 44.4268 41.8326C43.9352 41.4676 43.3518 41.2463 42.7418 41.1935C42.1317 41.1407 41.519 41.2585 40.972 41.5336C40.425 41.8087 39.9652 42.2305 39.6439 42.7517C39.3226 43.273 39.1524 43.8733 39.1524 44.4856C39.1524 45.0979 39.3226 45.6982 39.6439 46.2194C39.9652 46.7407 40.425 47.1624 40.972 47.4376C41.519 47.7127 42.1317 47.8305 42.7418 47.7777C43.3518 47.7249 43.9352 47.5036 44.4268 47.1385C45.039 46.6874 45.4854 46.047 45.6966 45.3164C45.843 44.7924 45.8382 44.4856 45.8713 44.4856C45.9043 44.4856 45.8713 44.5611 45.8713 44.7075C45.8788 44.9235 45.8565 45.1395 45.8052 45.3494C45.6357 46.1376 45.1946 46.841 44.559 47.3368C44.084 47.7097 43.5224 47.9563 42.9265 48.0537C42.3306 48.1511 41.7197 48.0961 41.1507 47.8938C40.4464 47.6442 39.8366 47.1825 39.4054 46.5721C38.9742 45.9618 38.7427 45.2329 38.7427 44.4856C38.7427 43.7383 38.9742 43.0094 39.4054 42.399C39.8366 41.7887 40.4464 41.327 41.1507 41.0774C41.7195 40.8758 42.3299 40.8207 42.9256 40.9172C43.5212 41.0137 44.083 41.2588 44.559 41.6297C45.1943 42.1277 45.6352 42.8325 45.8052 43.6217C45.8565 43.8317 45.8788 44.0477 45.8713 44.2637C45.8949 44.4006 45.8854 44.4856 45.8713 44.4856Z" fill="#263238"/>
<path d="M31.2612 112.933C30.0197 112.343 27.9285 111.111 26.6351 110.63C25.3566 110.083 23.9302 109.986 22.5896 110.356C21.8296 110.611 21.0696 111.22 21.0649 112.022L26.1395 115.766L31.2612 114.416V112.933Z" fill="#FF9A6C"/>
<path d="M25.7099 112.881C25.7099 112.881 16.5945 110.904 15.0745 110.125C13.5545 109.346 5.63343 105.381 4.30696 105.381C2.98049 105.381 1.84756 105.739 1.60681 107.061L3.33925 108.406L3.56111 109.096L6.52561 110.639L7.04959 111.612L14.6025 115.643C14.6025 115.643 22.5235 119.665 23.8453 119.891C25.167 120.118 31.7663 120.67 34.5892 123.073L45.9185 118.419C45.9185 118.419 42.6472 113.774 40.1264 112.627C37.8794 111.607 34.1077 111.607 31.4689 112.688L25.7099 112.881Z" fill="#FFBF9D"/>
<path d="M33.2911 120.486C33.2911 120.486 47.7123 151.934 50.0348 158.251C50.0348 158.251 66.1555 155.598 66.7078 146.652L45.9374 118.329L33.2911 120.486Z" fill="#FFBF9D"/>
<path d="M19.8989 113.594C19.8989 113.594 19.8422 113.594 19.7431 113.594C19.5956 113.579 19.4501 113.549 19.3088 113.505C18.7918 113.347 18.2895 113.145 17.8077 112.9C17.194 112.603 16.4812 112.211 15.6976 111.772C15.3058 111.555 14.8951 111.324 14.4655 111.102C14.036 110.88 13.5686 110.686 13.0919 110.479C12.2091 110.079 11.2969 109.748 10.3634 109.487C9.50897 109.275 8.6876 109.115 8.06921 109.322C7.82934 109.418 7.61174 109.562 7.42986 109.746C7.24797 109.929 7.10569 110.148 7.0118 110.389C6.94207 110.573 6.86169 110.753 6.77106 110.927C6.77106 110.927 6.77106 110.871 6.79466 110.776C6.82621 110.631 6.86882 110.489 6.92211 110.351C7.00553 110.131 7.11826 109.923 7.25727 109.733C7.44098 109.473 7.69706 109.273 7.99368 109.157C8.3596 109.034 8.74841 108.996 9.13133 109.044C9.55953 109.086 9.98398 109.16 10.4012 109.266C11.3546 109.517 12.286 109.845 13.1863 110.247C13.6583 110.455 14.1304 110.649 14.5694 110.88C15.0084 111.111 15.4144 111.352 15.8062 111.574C16.5851 112.022 17.2837 112.428 17.8832 112.74C18.3477 112.994 18.8287 113.216 19.323 113.405C19.6912 113.542 19.8989 113.571 19.8989 113.594Z" fill="#FF9A6C"/>
<path d="M11.2036 109.072C10.7592 108.982 10.3289 108.833 9.92434 108.628C8.95074 108.169 7.94965 107.77 6.9268 107.434C6.36712 107.275 5.78221 107.226 5.2038 107.288C4.97301 107.295 4.74605 107.348 4.53669 107.446C4.32733 107.543 4.13994 107.682 3.9859 107.854C3.80129 108.11 3.67996 108.406 3.63186 108.718C3.62758 108.839 3.60367 108.959 3.56106 109.072C3.53897 108.952 3.53897 108.829 3.56106 108.709C3.57871 108.372 3.68629 108.046 3.87261 107.764C4.01711 107.568 4.20433 107.406 4.42019 107.292C4.6671 107.175 4.932 107.1 5.2038 107.07C5.81266 106.994 6.4307 107.04 7.02121 107.207C8.05859 107.54 9.0635 107.967 10.0235 108.482C10.4271 108.657 10.8211 108.854 11.2036 109.072Z" fill="#FF9A6C"/>
<path d="M33.9566 111.989C33.9566 111.989 33.8292 112.065 33.5884 112.15C33.2432 112.275 32.8918 112.382 32.5357 112.471C31.3639 112.776 30.1627 112.955 28.9529 113.004C27.7433 113.056 26.5315 112.984 25.3369 112.787C24.8649 112.707 24.5155 112.627 24.2654 112.556C24.1315 112.536 24.0022 112.493 23.883 112.428C23.883 112.391 24.4495 112.499 25.3652 112.612C26.5519 112.759 27.7487 112.808 28.9434 112.759C30.139 112.697 31.3277 112.539 32.498 112.287C33.3713 112.117 33.9236 111.956 33.9566 111.989Z" fill="#FF9A6C"/>
<path d="M168.228 93.3196L147.25 88.9767L142.057 85.0822L114.347 90.4259C113.904 91.2378 109.415 97.5067 109.415 97.5067L98.5006 101.212C93.862 102.431 89.7218 105.072 86.6615 108.765C83.7515 112.359 81.3674 116.349 79.5807 120.614C74.6713 132.137 67.5858 145.449 67.5858 145.449L63.1438 138.292L44.4221 147.11C44.4221 147.11 55.3879 169.216 59.018 172.374C63.0541 175.882 72.3347 176.288 78.7499 169.745C82.616 165.799 93.7895 150.202 96.1167 146.298L99.5722 162.622L102.749 181.254L97.6132 194.079H172.575L169.474 181.957C169.474 181.957 172.528 150.363 173.373 144.481C175.36 130.607 168.228 93.3196 168.228 93.3196Z" fill="#FF725E"/>
<path d="M168.228 93.3196C168.228 93.3196 183.239 97.5303 186.543 112.452C188.545 121.492 195.342 147.261 197.736 168.475C199.152 181.089 199.114 192.744 199.152 194.079H176.116L166.354 97.5303L168.228 93.3196Z" fill="#FF725E"/>
<path d="M129.727 106.131C129.727 106.131 129.727 106.188 129.666 106.287L129.453 106.721C129.264 107.104 128.981 107.665 128.674 108.378C128.009 109.794 127.225 111.895 125.96 114.241L125.899 114.359L125.795 114.269C124.237 112.943 122.547 111.347 120.8 109.624C117.709 106.556 114.999 103.7 112.997 101.675L110.614 99.2816L109.957 98.6349C109.878 98.5634 109.805 98.4844 109.74 98.3989C109.831 98.4563 109.915 98.5245 109.99 98.6019L110.67 99.2155C111.256 99.7537 112.086 100.551 113.111 101.552C115.145 103.549 117.878 106.386 120.961 109.45C122.708 111.173 124.388 112.754 125.927 114.104L125.757 114.132C127.032 111.819 127.843 109.728 128.542 108.321C128.887 107.609 129.175 107.061 129.382 106.688C129.477 106.523 129.557 106.381 129.623 106.273C129.653 106.222 129.687 106.174 129.727 106.131Z" fill="black"/>
<path d="M147.542 89.5101C147.541 89.6215 147.527 89.7324 147.5 89.8405C147.453 90.0766 147.396 90.3881 147.325 90.7846C147.155 91.5966 146.853 92.7673 146.466 94.1929C145.649 97.0252 144.328 100.939 142.69 105.163C141.826 107.401 140.976 109.516 140.183 111.39L140.122 111.536L140.004 111.432C137.865 109.544 135.949 108.057 134.65 106.952C133.999 106.4 133.489 105.956 133.145 105.645L132.762 105.286C132.673 105.201 132.63 105.159 132.635 105.154C132.689 105.182 132.74 105.217 132.786 105.258L133.192 105.593L134.735 106.849C136.062 107.925 137.993 109.384 140.155 111.262L139.975 111.305C140.754 109.417 141.599 107.311 142.458 105.078C144.077 100.83 145.423 96.9827 146.277 94.1457C146.702 92.7295 147.014 91.5683 147.221 90.761C147.311 90.3787 147.386 90.0718 147.443 89.8169C147.468 89.7123 147.502 89.6098 147.542 89.5101Z" fill="black"/>
<path d="M98.9821 160.531C98.9623 160.499 98.948 160.463 98.9396 160.427L98.8405 160.106C98.7555 159.791 98.6375 159.376 98.4864 158.86C98.3259 158.321 98.1701 157.656 97.9813 156.882C97.7925 156.107 97.5895 155.22 97.3865 154.238C96.3422 149.116 95.6076 143.936 95.1868 138.726C94.6533 132.623 94.5353 127.076 94.5636 123.068C94.5636 121.062 94.6156 119.438 94.6722 118.32C94.7005 117.772 94.7194 117.342 94.7336 117.026C94.7336 116.894 94.7336 116.781 94.7572 116.691C94.7522 116.653 94.7522 116.615 94.7572 116.578C94.7611 116.617 94.7611 116.656 94.7572 116.696V117.031C94.7572 117.347 94.7572 117.777 94.7572 118.32C94.7572 119.443 94.7194 121.062 94.7289 123.068C94.7289 127.071 94.8894 132.613 95.4228 138.703C95.8474 143.905 96.5565 149.08 97.547 154.205C97.7406 155.187 97.92 156.093 98.1041 156.849C98.2882 157.604 98.425 158.298 98.5761 158.836L98.8877 160.092L98.9585 160.417C98.9821 160.493 98.9868 160.531 98.9821 160.531Z" fill="black"/>
<path d="M169.474 109.87C169.502 109.911 169.524 109.955 169.54 110.002C169.582 110.101 169.639 110.229 169.705 110.389C169.856 110.748 170.059 111.253 170.324 111.89C170.456 112.221 170.612 112.579 170.763 112.981L171.211 114.302C171.372 114.774 171.541 115.289 171.726 115.827C171.91 116.365 172.032 116.955 172.198 117.564C173.614 122.422 174.322 129.451 173.916 137.14C173.51 144.83 172.604 151.774 172.028 156.759C171.74 159.251 171.504 161.276 171.338 162.693C171.258 163.377 171.192 163.92 171.145 164.302L171.088 164.722C171.085 164.771 171.075 164.818 171.06 164.864C171.054 164.817 171.054 164.769 171.06 164.722L171.093 164.298C171.131 163.911 171.183 163.353 171.244 162.683C171.376 161.267 171.584 159.247 171.853 156.74C172.368 151.727 173.236 144.806 173.652 137.131C174.067 129.455 173.368 122.464 172.014 117.607L171.541 115.87L171.069 114.35C170.918 113.878 170.777 113.429 170.645 113.023C170.512 112.617 170.352 112.254 170.224 111.923C169.979 111.276 169.79 110.771 169.649 110.408C169.592 110.243 169.545 110.115 169.507 110.011C169.489 109.966 169.478 109.918 169.474 109.87Z" fill="black"/>
<path d="M67.7085 161.522C67.6424 161.522 67.5622 157.925 67.5339 153.497C67.5055 149.069 67.5339 145.472 67.6047 145.472C67.6755 145.472 67.751 149.069 67.7793 153.497C67.8077 157.925 67.7793 161.522 67.7085 161.522Z" fill="black"/>
<path d="M135.826 183.307V183.109C135.826 182.967 135.864 182.779 135.892 182.533C135.958 182.014 136.048 181.273 136.166 180.319C136.227 179.847 136.293 179.304 136.369 178.724C136.444 178.143 136.501 177.501 136.572 176.835C136.709 175.466 136.897 173.913 137.044 172.186C137.115 171.326 137.185 170.42 137.266 169.481C137.346 168.541 137.384 167.559 137.445 166.545C137.587 164.515 137.648 162.339 137.728 160.054C137.832 155.48 137.818 150.448 137.582 145.175C137.346 139.902 136.864 134.889 136.331 130.343C136.034 128.072 135.774 125.915 135.439 123.909C135.283 122.903 135.146 121.931 134.967 121.001C134.787 120.071 134.641 119.179 134.495 118.324C134.207 116.62 133.876 115.091 133.607 113.741C133.47 113.066 133.348 112.438 133.23 111.852C133.112 111.267 132.984 110.753 132.876 110.28L132.403 108.104C132.356 107.864 132.314 107.675 132.285 107.538C132.257 107.401 132.252 107.34 132.252 107.34C132.276 107.401 132.295 107.464 132.309 107.528L132.455 108.09L132.979 110.262L133.352 111.829C133.475 112.405 133.607 113.028 133.754 113.717C134.032 115.062 134.377 116.592 134.674 118.296C134.831 119.149 134.989 120.041 135.146 120.972C135.316 121.917 135.453 122.861 135.618 123.88C135.958 125.891 136.227 128.049 136.534 130.319C137.077 134.87 137.539 139.888 137.804 145.165C138.068 150.443 138.049 155.484 137.931 160.063C137.842 162.353 137.775 164.529 137.624 166.559C137.558 167.574 137.511 168.556 137.431 169.5C137.351 170.444 137.266 171.345 137.19 172.209C137.058 173.937 136.855 175.514 136.718 176.854C136.638 177.539 136.562 178.176 136.496 178.742C136.43 179.309 136.34 179.857 136.27 180.338C136.133 181.282 136.024 182.028 135.953 182.542L135.864 183.118C135.856 183.182 135.844 183.245 135.826 183.307Z" fill="black"/>
<path d="M145.805 132.354H145.9L146.197 132.321L147.353 132.188L151.777 131.716L167.52 130.083H167.638V130.201C167.756 134.964 167.897 140.355 168.044 146.072V146.123L168.011 146.157L166.122 148.201L159.24 155.555L159.178 155.621L159.098 155.579L147.5 149.82L147.448 149.796V149.754C146.943 144.49 146.504 140.138 146.235 137.084C146.093 135.583 145.984 134.402 145.909 133.586C145.876 133.194 145.848 132.892 145.829 132.67C145.81 132.448 145.829 132.368 145.829 132.368C145.829 132.368 145.829 132.481 145.871 132.689C145.914 132.897 145.933 133.222 145.98 133.633C146.065 134.459 146.192 135.644 146.357 137.154C146.674 140.185 147.122 144.514 147.67 149.749L147.613 149.669L159.226 155.395L159.089 155.418L165.957 148.035L167.845 145.996L167.812 146.081C167.675 140.364 167.543 134.978 167.43 130.211L167.553 130.314L151.857 131.816L147.405 132.231L146.221 132.335L145.914 132.363L145.805 132.354Z" fill="black"/>
<path d="M167.666 135.677C167.398 135.751 167.125 135.803 166.849 135.833C166.321 135.918 165.556 136.026 164.607 136.149C162.719 136.39 160.08 136.668 157.177 136.947L149.737 137.674L147.486 137.91C147.212 137.954 146.936 137.974 146.659 137.971C146.927 137.897 147.2 137.845 147.476 137.815C148.005 137.73 148.77 137.622 149.718 137.499C151.607 137.258 154.245 136.98 157.153 136.701L164.588 135.974L166.84 135.738C167.113 135.694 167.389 135.674 167.666 135.677Z" fill="black"/>
<g opacity="0.3">
<path d="M172.226 154.243L173.019 163.887C174.77 155.626 177.522 146.747 177.093 138.316C176.663 129.885 175.87 121.817 171.121 114.184C173.186 119.931 174.133 126.02 173.911 132.122C173.477 141.988 172.226 154.243 172.226 154.243Z" fill="black"/>
</g>
<path d="M64.5835 136.291C64.3285 135.71 63.8773 135.237 63.3089 134.955C62.6481 134.728 61.9305 135.049 61.3027 135.361L44.1766 143.886C43.0484 144.448 41.8163 145.113 41.4009 146.293C40.8581 147.804 41.873 149.4 42.8171 150.698C44.3937 152.864 46.282 155.225 48.9538 155.532L63.6866 145.43C65.4851 145.165 66.6039 143.159 66.5189 141.342C66.4339 139.524 65.4993 137.867 64.5835 136.291Z" fill="#FF725E"/>
<path d="M66.4434 142.465C66.3998 142.526 66.3491 142.581 66.2923 142.63L65.8203 143.069C65.4143 143.447 64.8148 143.98 64.0642 144.622C62.5584 145.911 60.42 147.625 57.9275 149.371C55.4351 151.118 53.1551 152.558 51.4226 153.53C50.5635 154.026 49.8601 154.413 49.3692 154.668L48.8027 154.956C48.6706 155.022 48.5998 155.05 48.595 155.041C48.6496 154.989 48.7117 154.946 48.7791 154.913L49.322 154.583L51.3329 153.379C53.0276 152.359 55.336 150.896 57.8001 149.154C60.2642 147.412 62.4168 145.727 63.9368 144.476L65.7448 142.98L66.2168 142.578C66.3773 142.503 66.4387 142.456 66.4434 142.465Z" fill="black"/>
<g opacity="0.3">
<path d="M147.32 90.5911C145.305 97.2848 142.482 104.857 140.098 111.361C138.068 109.638 135.226 107.358 133.192 105.631C134.943 109.105 137.045 112.39 139.465 115.435C139.749 115.789 140.126 116.176 140.565 116.091C141.004 116.006 141.203 115.553 141.354 115.147L145.069 105.314C146.806 100.717 148.482 95.3541 147.32 90.5911Z" fill="black"/>
</g>
<path d="M115.457 17.7674C121.593 16.0019 127.334 17.7674 132.994 20.7035C138.653 23.6397 143.218 28.4877 146.173 34.1287C149.289 40.0719 150.667 46.9969 149.539 53.6104C148.411 60.2239 144.672 66.455 139.074 70.1323C131.422 75.1738 120.876 74.9095 112.997 70.2409C105.119 65.5723 99.9309 56.9667 98.5572 47.908C97.6131 41.6674 98.3778 35.087 101.29 29.4979C104.203 23.9088 109.353 19.3771 115.452 17.7626" fill="#263238"/>
<path d="M135.604 36.9752C134.419 34.6952 134.471 31.9903 133.824 29.4979C132.408 24.0173 127.404 20.0568 121.966 18.4754C116.911 16.9979 111.062 18.1072 105.444 20.6469C101.602 22.3887 98.104 25.0606 95.8098 28.601C94.3093 30.974 93.3979 33.6714 93.1515 36.4683C92.9052 39.2651 93.3311 42.0803 94.3937 44.6791L122.429 37.3056C125.346 39.1938 128.334 41.1434 131.71 42.0262C132.691 42.33 133.735 42.3772 134.74 42.1631C135.239 42.0451 135.693 41.7861 136.049 41.417C136.405 41.0479 136.647 40.5842 136.746 40.0813C136.864 38.9578 136.119 37.9712 135.604 36.9752Z" fill="#263238"/>
<path d="M142.293 86.6872L135.056 35.7904C134.735 33.3829 133.64 30.9282 131.219 31.0415L105.728 28.5868C97.7406 28.955 93.9925 39.4441 94.7006 47.3887C95.4889 56.235 96.7965 67.0026 98.8311 73.3847C102.924 86.2104 113.257 86.3426 113.257 86.3426C113.257 86.3426 113.885 88.8917 114.673 93.6595L131.195 104.649L142.293 86.6872Z" fill="#FFBF9D"/>
<path d="M100.861 57.0705C100.924 57.5107 101.157 57.9087 101.51 58.1794C101.863 58.4502 102.307 58.5723 102.749 58.5197C102.966 58.5044 103.178 58.4457 103.372 58.3471C103.566 58.2484 103.738 58.1119 103.879 57.9456C104.019 57.7792 104.125 57.5864 104.189 57.3786C104.254 57.1707 104.276 56.952 104.255 56.7354C104.19 56.2954 103.957 55.8977 103.605 55.6264C103.253 55.3551 102.809 55.2314 102.367 55.2815C102.15 55.298 101.938 55.3577 101.744 55.4571C101.551 55.5564 101.378 55.6933 101.238 55.8599C101.098 56.0265 100.992 56.2194 100.928 56.4272C100.863 56.6351 100.84 56.8538 100.861 57.0705Z" fill="#263238"/>
<path d="M97.8869 52.6096C98.1276 52.7985 99.2606 51.6655 101.078 51.387C102.895 51.1085 104.359 51.8213 104.524 51.5664C104.604 51.4531 104.33 51.0943 103.688 50.7545C102.82 50.333 101.843 50.188 100.889 50.3391C99.9447 50.4793 99.0698 50.9176 98.392 51.59C97.8963 52.0998 97.7689 52.5105 97.8869 52.6096Z" fill="#263238"/>
<path d="M117.633 54.3421C117.695 54.7831 117.928 55.1822 118.281 55.454C118.634 55.7257 119.079 55.8485 119.521 55.796C119.738 55.7807 119.95 55.7219 120.144 55.6233C120.338 55.5247 120.51 55.3882 120.651 55.2218C120.791 55.0555 120.897 54.8627 120.961 54.6548C121.026 54.447 121.048 54.2283 121.027 54.0116C120.965 53.5706 120.732 53.1715 120.379 52.8997C120.026 52.628 119.581 52.5052 119.139 52.5577C118.922 52.5737 118.71 52.6328 118.517 52.7317C118.323 52.8305 118.151 52.967 118.011 53.1332C117.87 53.2994 117.765 53.492 117.7 53.6996C117.635 53.9071 117.612 54.1256 117.633 54.3421Z" fill="#263238"/>
<path d="M115.15 50.2069C115.391 50.3957 116.528 49.2628 118.341 48.9843C120.154 48.7057 121.622 49.4186 121.787 49.1636C121.867 49.0503 121.593 48.6916 120.951 48.3517C120.081 47.9293 119.103 47.7842 118.147 47.9363C117.191 48.0772 116.306 48.5225 115.622 49.2061C115.15 49.6782 115.022 50.1502 115.15 50.2069Z" fill="#263238"/>
<path d="M111.241 64.6848C111.241 64.5809 110.075 64.5573 108.215 64.6045C107.743 64.6045 107.271 64.6045 107.163 64.2977C107.054 63.9909 107.12 63.4527 107.262 62.8815C107.526 61.6951 107.805 60.4505 108.097 59.1476C109.23 53.8323 109.986 49.4941 109.764 49.4516C109.542 49.4091 108.456 53.7001 107.319 58.9871C107.049 60.2947 106.79 61.5456 106.549 62.7399C106.455 63.2922 106.242 63.9342 106.587 64.5904C106.677 64.7446 106.803 64.8757 106.952 64.9732C107.102 65.0707 107.273 65.132 107.451 65.1521C107.717 65.1882 107.987 65.1882 108.253 65.1521C110.108 64.9539 111.251 64.7839 111.241 64.6848Z" fill="#263238"/>
<path d="M113.262 86.3426C119.468 85.4895 125.316 82.9285 130.152 78.9455C130.152 78.9455 126.031 89.2599 114.102 90.2984L113.262 86.3426Z" fill="#FF9A6C"/>
<path d="M112.676 68.9427C112.955 68.4557 113.353 68.0476 113.833 67.7569C114.312 67.4662 114.858 67.3025 115.419 67.2811C115.826 67.2576 116.234 67.317 116.618 67.4558C117.002 67.5945 117.354 67.8097 117.652 68.0883C117.94 68.3542 118.14 68.7023 118.225 69.0856C118.309 69.4689 118.274 69.8689 118.124 70.2314C117.741 70.9914 116.741 71.3077 115.839 71.1755C114.936 71.0035 114.076 70.6537 113.309 70.1465C113.08 70.0293 112.877 69.869 112.709 69.6744C112.627 69.5848 112.573 69.4729 112.555 69.3527C112.536 69.2325 112.554 69.1095 112.606 68.9994" fill="#FF9A6C"/>
<path d="M116.774 65.1238C116.472 65.1521 116.774 67.1253 115.296 68.7775C113.819 70.4297 111.699 70.5383 111.723 70.8121C111.723 70.9442 112.251 71.1236 113.139 71.015C114.296 70.8547 115.359 70.2913 116.141 69.4242C116.892 68.5934 117.29 67.5032 117.251 66.3842C117.199 65.5487 116.906 65.0955 116.774 65.1238Z" fill="#263238"/>
<path d="M114.631 44.7877C114.886 45.2598 116.66 44.7452 118.827 44.6744C120.994 44.6036 122.807 44.9246 123.019 44.4384C123.113 44.2071 122.745 43.7917 121.976 43.4187C120.96 42.9752 119.857 42.7685 118.75 42.8143C117.642 42.8601 116.56 43.1572 115.584 43.6831C114.853 44.1174 114.517 44.5658 114.631 44.7877Z" fill="#263238"/>
<path d="M97.2118 44.5989C97.5942 44.9624 98.7791 44.344 100.28 44.0938C101.781 43.8436 103.113 43.9474 103.32 43.4707C103.419 43.2394 103.155 42.8617 102.541 42.5549C101.723 42.2025 100.819 42.1005 99.9422 42.2618C99.0659 42.4231 98.257 42.8405 97.6178 43.4612C97.141 43.9663 97.0325 44.4195 97.2118 44.5989Z" fill="#263238"/>
<path d="M139.73 32.6182C136.293 25.3296 123.859 16.2804 115.967 17.8995L104.264 27.2273C104.967 29.3439 106.228 31.2315 107.915 32.6905C109.602 34.1496 111.651 35.126 113.847 35.5166C116.184 35.9036 118.922 35.729 120.517 37.485C122.113 39.2411 121.73 42.2622 123.274 44.1268C125.412 46.7137 130.208 45.9395 131.936 48.819C132.696 50.0747 132.606 51.708 133.381 52.9542C134.419 54.6111 139.182 56.2586 140.933 55.4184C142.685 54.5781 142.288 51.4437 142.671 49.7112C143.327 46.7609 142.704 45.3589 142.156 43.8294C140.877 40.2041 141.373 36.0925 139.73 32.6182Z" fill="#263238"/>
<path d="M135.708 57.7031C135.562 56.7212 136.34 54.243 137.285 53.9267C139.805 53.1336 144.493 52.6285 145.536 59.1806C146.952 68.1497 137.681 67.7201 137.62 67.4652C137.558 67.2103 136.218 61.0736 135.708 57.7031Z" fill="#FFBF9D"/>
<path d="M139.815 63.6415C139.852 63.6038 139.989 63.7265 140.287 63.802C140.683 63.9043 141.103 63.8467 141.457 63.6415C142.345 63.1459 142.902 61.5173 142.69 59.8934C142.589 59.1227 142.318 58.3841 141.896 57.7314C141.768 57.4647 141.577 57.2333 141.34 57.0572C141.102 56.8812 140.825 56.7658 140.532 56.7212C140.345 56.7019 140.158 56.749 140.002 56.8544C139.847 56.9597 139.734 57.1165 139.683 57.2971C139.602 57.5662 139.683 57.7361 139.64 57.7692C139.598 57.8022 139.428 57.6512 139.437 57.2688C139.453 57.0401 139.546 56.8236 139.701 56.6551C139.917 56.428 140.214 56.2956 140.528 56.2869C141.226 56.2256 141.944 56.759 142.378 57.4151C142.884 58.1308 143.208 58.9586 143.322 59.8273C143.553 61.64 142.897 63.4763 141.66 64.0758C141.432 64.1845 141.182 64.2409 140.929 64.2409C140.676 64.2409 140.426 64.1845 140.197 64.0758C139.867 63.8398 139.786 63.6604 139.815 63.6415Z" fill="#FF9A6C"/>
<path d="M106.568 24.2109C106.157 27.9873 101.121 33.2979 99.0152 36.4276C94.9697 42.3991 94.2521 44.3109 95.6777 56.4711C92.9965 52.52 90.8439 48.5925 90.4851 43.8294C90.1264 39.0664 91.3254 34.124 94.2332 30.3381C97.1411 26.5523 101.819 24.0598 106.592 24.2014" fill="#263238"/>
<path d="M127.957 11.4041C129.845 9.32229 132.574 7.9675 135.406 7.25942C139.442 6.24922 143.874 6.52302 147.547 8.27906C151.22 10.0351 154.061 13.33 154.803 17.1065C155.167 19.0464 154.996 21.0489 154.307 22.8987C153.618 24.7485 152.438 26.3756 150.894 27.6049C152.994 29.6409 155.554 31.1404 158.357 31.9762C157.592 33.1233 156.181 33.7936 154.755 34.0343C153.322 34.2135 151.872 34.204 150.441 34.006C151.417 35.4654 152.879 36.5322 154.567 37.0177C152.243 37.554 149.82 37.4743 147.538 36.7864C145.305 36.1096 143.168 35.1499 141.179 33.9305C134.273 29.9227 130.463 26.4106 125.8 20.2409C125.191 17.5785 126.054 13.4905 127.957 11.4041Z" fill="#263238"/>
<path d="M142.845 30.324C137.775 22.9174 131.323 18.9569 125.483 17.7249Z" fill="#263238"/>
<path d="M125.483 17.7249C125.751 17.832 126.027 17.9157 126.309 17.975C126.843 18.1261 127.612 18.3574 128.537 18.7114C130.946 19.6472 133.211 20.9186 135.264 22.4879C137.318 24.0534 139.189 25.8442 140.844 27.8268C141.467 28.5963 141.972 29.243 142.298 29.6678C142.46 29.9086 142.643 30.1345 142.845 30.3429C142.709 30.0847 142.551 29.8383 142.373 29.6065C142.071 29.1344 141.59 28.4971 140.981 27.7182C139.368 25.6761 137.51 23.8402 135.448 22.2519C133.37 20.6668 131.062 19.4092 128.603 18.5226C127.862 18.2588 127.105 18.0397 126.338 17.8665C126.057 17.7965 125.771 17.7492 125.483 17.7249Z" fill="#455A64"/>
<path d="M148.888 36.6353L148.774 36.6731L148.444 36.8053C148.161 36.928 147.736 37.0885 147.179 37.2773C145.604 37.8044 143.972 38.1373 142.317 38.2686C139.863 38.4513 137.396 38.2924 134.986 37.7966C132.034 37.1764 129.148 36.2771 126.366 35.1106C123.392 33.8974 120.588 32.6512 118.091 31.4286C115.873 30.3554 113.738 29.1183 111.704 27.7277C110.337 26.7858 109.045 25.7378 107.843 24.5932C107.408 24.192 107.097 23.8568 106.898 23.6491L106.648 23.3989C106.592 23.347 106.563 23.3187 106.559 23.3234C106.554 23.3281 106.559 23.3565 106.629 23.4178L106.861 23.6869C107.064 23.9229 107.366 24.2675 107.805 24.6829C108.988 25.8609 110.268 26.9363 111.633 27.8976C113.66 29.3215 115.796 30.5842 118.02 31.6741C120.522 32.9156 123.321 34.1712 126.3 35.3891C129.099 36.5588 132.005 37.4552 134.976 38.0657C137.41 38.5515 139.901 38.6882 142.373 38.4716C144.026 38.3206 145.653 37.9621 147.217 37.4048C147.769 37.1924 148.189 37.0177 148.468 36.8761L148.784 36.7203C148.855 36.6589 148.892 36.6401 148.888 36.6353Z" fill="#455A64"/>
<path d="M122.141 81.0886L121.287 79.4176C121.348 79.3845 127.277 76.3445 129.557 74.428C134.929 69.9151 139.867 62.7069 139.919 62.6266L141.476 63.6887C141.269 63.9956 136.345 71.185 130.77 75.8677C128.316 77.9164 122.391 80.9612 122.141 81.0886Z" fill="#455A64"/>
<path d="M126.555 75.8724C126.555 75.8724 118.454 79.4884 118.454 80.2909C118.454 81.0934 119.738 82.6983 120.701 82.6181C121.664 82.5378 124.449 80.9706 124.95 80.3286C125.45 79.6866 126.338 78.0344 127.31 77.2319L126.555 75.8724Z" fill="#263238"/>
<path d="M141.41 51.5664L139.522 51.4767C139.59 46.0317 138.653 40.6209 136.756 35.5166C132.658 24.9615 124.78 19.2968 113.347 18.6737C112.307 18.6281 111.265 18.6993 110.241 18.8861L111.067 18.1025C111.467 17.7246 111.932 17.4224 112.44 17.2103C113.137 16.9193 113.893 16.8026 114.645 16.8704C129.08 18.1214 135.604 27.2981 138.535 34.8887C140.532 40.2181 141.508 45.876 141.41 51.5664Z" fill="#455A64"/>
<path d="M140.466 68.735C143.769 68.735 146.447 64.8842 146.447 60.1341C146.447 55.384 143.769 51.5333 140.466 51.5333C137.163 51.5333 134.485 55.384 134.485 60.1341C134.485 64.8842 137.163 68.735 140.466 68.735Z" fill="#455A64"/>
<path d="M146.447 60.1342C146.441 60.095 146.441 60.0553 146.447 60.0162C146.447 59.9218 146.447 59.8085 146.419 59.6668C146.398 59.2209 146.352 58.7765 146.282 58.3357C146.038 56.7093 145.405 55.166 144.436 53.837C144.11 53.4073 143.733 53.0189 143.313 52.6804C142.855 52.3202 142.339 52.0408 141.788 51.8544C141.197 51.663 140.572 51.6034 139.956 51.6797C139.305 51.7775 138.681 52.0107 138.125 52.3642C136.946 53.1839 136.037 54.3335 135.51 55.6685C134.92 57.0902 134.617 58.6141 134.617 60.1531C134.617 61.6921 134.92 63.216 135.51 64.6376C136.036 65.9729 136.946 67.1226 138.125 67.942C138.681 68.2954 139.305 68.5286 139.956 68.6264C140.572 68.7004 141.197 68.6409 141.788 68.4518C142.339 68.2653 142.855 67.9859 143.313 67.6257C143.732 67.286 144.109 66.8977 144.436 66.4691C145.405 65.1401 146.038 63.5968 146.282 61.9705C146.352 61.5296 146.397 61.0852 146.419 60.6393C146.419 60.4977 146.419 60.3844 146.447 60.29C146.441 60.2509 146.441 60.211 146.447 60.1719C146.454 60.2109 146.454 60.251 146.447 60.29V60.6393C146.442 61.0892 146.411 61.5384 146.353 61.9846C146.141 63.64 145.522 65.2168 144.549 66.573C144.219 67.0177 143.835 67.4203 143.407 67.772C142.935 68.1533 142.4 68.4488 141.826 68.6453C141.207 68.8484 140.551 68.9145 139.904 68.8389C139.221 68.7409 138.566 68.4996 137.983 68.1308C136.762 67.2998 135.816 66.1228 135.269 64.7509C134.661 63.3007 134.348 61.7442 134.348 60.1719C134.348 58.5997 134.661 57.0431 135.269 55.593C135.816 54.221 136.762 53.0441 137.983 52.2131C138.566 51.8443 139.221 51.603 139.904 51.505C140.551 51.4294 141.207 51.4955 141.826 51.6986C142.4 51.895 142.935 52.1906 143.407 52.5719C143.836 52.9224 144.22 53.3252 144.549 53.7709C145.523 55.1263 146.143 56.7035 146.353 58.3593C146.41 58.8039 146.442 59.2515 146.447 59.6999V60.0539C146.45 60.0806 146.45 60.1075 146.447 60.1342Z" fill="#263238"/>
<path d="M141.387 65.1285C143.491 65.1285 145.196 62.6769 145.196 59.6527C145.196 56.6285 143.491 54.1768 141.387 54.1768C139.283 54.1768 137.577 56.6285 137.577 59.6527C137.577 62.6769 139.283 65.1285 141.387 65.1285Z" fill="#455A64"/>
<path d="M145.196 59.6527C145.168 59.6527 145.196 59.2373 145.059 58.5056C144.901 57.4798 144.496 56.5077 143.879 55.6733C143.46 55.1009 142.877 54.6682 142.208 54.4318C141.837 54.3122 141.444 54.2751 141.056 54.3232C140.648 54.384 140.257 54.5304 139.909 54.7527C139.168 55.2687 138.595 55.991 138.262 56.8298C137.888 57.7272 137.697 58.6901 137.7 59.6621C137.695 60.6343 137.886 61.5976 138.262 62.4944C138.595 63.3332 139.168 64.0555 139.909 64.5715C140.257 64.7938 140.648 64.9402 141.056 65.001C141.444 65.0491 141.837 65.012 142.208 64.8925C142.877 64.656 143.46 64.2233 143.879 63.651C144.496 62.8165 144.901 61.8445 145.059 60.8186C145.177 60.087 145.168 59.6715 145.196 59.6763C145.202 59.7753 145.202 59.8746 145.196 59.9737C145.196 60.261 145.177 60.5479 145.14 60.8328C145.014 61.8919 144.623 62.902 144.002 63.769C143.569 64.3807 142.96 64.8452 142.255 65.1002C141.858 65.2353 141.435 65.2805 141.018 65.2323C140.576 65.1637 140.153 65.0028 139.777 64.7603C138.992 64.2278 138.384 63.4734 138.03 62.5936C137.641 61.6645 137.44 60.6671 137.44 59.6597C137.44 58.6524 137.641 57.655 138.03 56.7259C138.384 55.8461 138.992 55.0917 139.777 54.5592C140.152 54.3174 140.573 54.1566 141.014 54.0871C141.432 54.0393 141.856 54.0844 142.255 54.2193C142.96 54.4743 143.569 54.9388 144.002 55.5505C144.623 56.4175 145.014 57.4276 145.14 58.4867C145.177 58.7716 145.196 59.0585 145.196 59.3458C145.202 59.448 145.202 59.5505 145.196 59.6527Z" fill="#263238"/>
<path d="M141.651 63.5896C143.163 63.5896 144.389 61.827 144.389 59.6527C144.389 57.4784 143.163 55.7157 141.651 55.7157C140.139 55.7157 138.913 57.4784 138.913 59.6527C138.913 61.827 140.139 63.5896 141.651 63.5896Z" fill="#455A64"/>
<path d="M144.389 59.6527C144.365 59.6527 144.365 59.3553 144.28 58.8313C144.159 58.0947 143.864 57.3974 143.421 56.7967C143.123 56.3894 142.708 56.0817 142.232 55.914C141.96 55.8272 141.673 55.8029 141.391 55.843C141.109 55.883 140.84 55.9864 140.603 56.1453C139.579 56.8203 139.036 58.2365 139.031 59.6479C139.026 61.0594 139.579 62.4803 140.603 63.1553C140.84 63.3142 141.109 63.4176 141.391 63.4576C141.673 63.4977 141.96 63.4734 142.232 63.3866C142.708 63.2189 143.123 62.9112 143.421 62.5039C143.864 61.9032 144.159 61.2059 144.28 60.4693C144.365 59.9453 144.365 59.6479 144.389 59.6527C144.4 59.723 144.4 59.7947 144.389 59.8651C144.391 60.0717 144.38 60.2783 144.356 60.4835C144.271 61.2507 143.992 61.9835 143.544 62.6124C143.225 63.0477 142.783 63.3768 142.274 63.5565C141.984 63.654 141.677 63.6878 141.373 63.6557C141.05 63.6112 140.741 63.4985 140.466 63.3252C139.895 62.9385 139.452 62.3893 139.196 61.7486C138.912 61.0764 138.766 60.3541 138.766 59.6243C138.766 58.8946 138.912 58.1723 139.196 57.5001C139.452 56.8594 139.895 56.3102 140.466 55.9234C140.741 55.7502 141.05 55.6375 141.373 55.593C141.677 55.5609 141.984 55.5947 142.274 55.6921C142.783 55.8719 143.225 56.201 143.544 56.6362C143.992 57.2652 144.271 57.998 144.356 58.7652C144.38 58.9704 144.391 59.177 144.389 59.3836C144.406 59.4725 144.406 59.5638 144.389 59.6527Z" fill="#263238"/>
</svg>
