<?xml version="1.0" encoding="utf-8"?>
<!-- Generator: Adobe Illustrator 26.1.0, SVG Export Plug-In . SVG Version: 6.00 Build 0)  -->
<svg version="1.1" xmlns="http://www.w3.org/2000/svg" xmlns:xlink="http://www.w3.org/1999/xlink" x="0px" y="0px"
	 viewBox="0 0 1400 404" style="enable-background:new 0 0 1400 404;" xml:space="preserve">
<style type="text/css">
	.st0{display:none;}
	.st1{display:inline;fill:#ADD9F1;}
	.st2{fill:#ADD9F1;stroke:#FFFFFF;stroke-width:1.18;stroke-linecap:round;stroke-miterlimit:10;}
	.st3{fill:none;stroke:#FFFFFF;stroke-width:1.18;stroke-linecap:round;stroke-miterlimit:10;}
	.st4{fill:#FFFFFF;}
	.st5{fill:#19AF92;stroke:#FFFFFF;stroke-width:1.18;stroke-linecap:round;stroke-miterlimit:10;}
	.st6{fill:none;}
	.st7{fill:#17917F;stroke:#FFFFFF;stroke-width:1.18;stroke-linecap:round;stroke-miterlimit:10;}
	.st8{fill-rule:evenodd;clip-rule:evenodd;fill:#FFCA39;}
	.st9{fill-rule:evenodd;clip-rule:evenodd;fill:#FFFFFF;}
	.st10{fill-rule:evenodd;clip-rule:evenodd;fill:#2E6089;}
	.st11{fill:#003C5C;}
	.st12{fill:#8C6D57;}
	.st13{fill:#E8E8E8;}
	.st14{fill:#C43F3F;}
	.st15{fill:#E84F4F;}
	.st16{fill:#001E49;}
	.st17{fill:#AD8A6F;}
	.st18{fill:#6F818A;}
	.st19{fill:#A0A8AA;}
	.st20{opacity:7.000000e-02;}
	.st21{fill:#D0D3D3;}
	.st22{fill:#00264F;}
	.st23{fill:#00C6D9;}
	.st24{fill:#B27247;}
	.st25{fill:#FBC092;}
	.st26{opacity:0.53;}
	.st27{fill:#FF8200;}
	.st28{fill:#7A6D51;}
	.st29{fill:#002751;}
	.st30{fill:#91825C;}
	.st31{fill:#FFC533;}
	.st32{fill:#D69361;}
	.st33{fill:#FFCFA2;}
	.st34{fill:#E8F4F6;}
	.st35{fill:#3B7396;}
	.st36{fill:#004267;}
	.st37{fill-rule:evenodd;clip-rule:evenodd;fill:#3F6FA0;}
	.st38{fill-rule:evenodd;clip-rule:evenodd;fill:#308E85;}
	.st39{fill:#7A5D49;}
	.st40{fill-rule:evenodd;clip-rule:evenodd;fill:#222B56;}
	.st41{fill-rule:evenodd;clip-rule:evenodd;fill:#EAA786;}
	.st42{fill-rule:evenodd;clip-rule:evenodd;fill:#003C5C;}
	.st43{fill-rule:evenodd;clip-rule:evenodd;fill:#C67030;}
	.st44{fill-rule:evenodd;clip-rule:evenodd;fill:#FFC533;}
	.st45{fill-rule:evenodd;clip-rule:evenodd;fill:#D8906C;}
	.st46{fill-rule:evenodd;clip-rule:evenodd;fill:#F7B690;}
	.st47{fill-rule:evenodd;clip-rule:evenodd;fill:#C43F3F;}
	.st48{fill-rule:evenodd;clip-rule:evenodd;fill:#E84F4F;}
	.st49{fill-rule:evenodd;clip-rule:evenodd;fill:#00AA9A;}
	.st50{fill:#3F6FA0;}
	.st51{fill:#F7B690;}
	.st52{fill-rule:evenodd;clip-rule:evenodd;fill:#004267;}
	.st53{fill:#2D3436;}
	.st54{fill:#2E5D80;}
	.st55{fill:#F4A086;}
	.st56{fill:#CE932C;}
</style>
<g id="bg" class="st0">
	<rect x="0.3" y="0" class="st1" width="1400" height="404"/>
</g>
<g id="landscape">
	<g id="Libra_00000073713631943053611730000011465352252018104456_">
		<polygon id="XMLID_00000111168742094746397490000012812299431567994298_" class="st2" points="764,348.6 748.1,348.6 751.6,42.9 
			760.4,42.9 		"/>
		<g id="XMLID_00000111192320183200923830000008061407176262593439_">
			<g id="XMLID_00000042697330648710035680000017463875064952623755_">
				<polyline id="XMLID_00000143588246684191845410000003633436988389291171_" class="st3" points="834.9,84.8 835.7,85.1 
					800,178.3 799.2,178 				"/>
			</g>
			<g id="XMLID_00000051350622845281074590000011095578717813227961_">
				<polyline id="XMLID_00000035508063498856422570000002071385704756475780_" class="st3" points="834.9,85.1 835.7,84.8 
					871.4,178 870.6,178.3 				"/>
			</g>
			<g id="XMLID_00000111891142786263202660000006371226697680408233_">
				<polyline id="XMLID_00000006671123354660513310000000215251914702136504_" class="st3" points="834.9,84.9 835.7,84.9 
					835.7,178.8 834.9,178.8 				"/>
			</g>
			<g id="XMLID_00000018922607868902360060000010714530848968166588_">
				<polyline id="XMLID_00000054948115855820709980000003993916891153438141_" class="st3" points="676.4,85.1 677.2,84.8 
					712.9,178 712.1,178.3 				"/>
			</g>
			<g id="XMLID_00000133520810340848616830000012929271414845758649_">
				<polyline id="XMLID_00000102515579192576742250000017559181158939857333_" class="st3" points="676.4,84.8 677.2,85.1 
					641.5,178.3 640.7,178 				"/>
			</g>
			<g id="XMLID_00000019653171985383533620000002175867926136200621_">
				<polyline id="XMLID_00000126310242507311499290000013508604849323131537_" class="st3" points="676.3,84.9 677.2,84.9 
					677.2,178.8 676.3,178.8 				"/>
			</g>
		</g>
		<path id="XMLID_00000057123102628005558880000009574174380025053605_" class="st2" d="M873.6,176.3c0,28.1-76.7,28.1-76.7,0H873.6
			z"/>
		<path id="XMLID_00000096031284310722827230000009302687134570058413_" class="st2" d="M638.4,176.3c0,28.1,76.7,28.1,76.7,0H638.4
			z"/>
		<path id="XMLID_00000088108941920490572910000007402571409636277127_" class="st2" d="M848.9,76.5c-3,0-5.5,2.5-5.5,5.5
			c0,1.5,0.6,2.8,1.5,3.7l-1.1-0.2c-1-0.2-2.1-0.4-3.1-0.6c-4.1-0.9-8.1-2-12-3.4c-3.9-1.4-7.7-3-11.4-4.9c-0.9-0.5-1.8-0.9-2.7-1.4
			l-2.8-1.5l-1.4-0.8l-1.4-0.7c-1-0.5-1.9-1-2.9-1.4c-7.8-3.7-16-6.5-24.5-8.4c-4.2-0.9-8.5-1.6-12.8-2.1c-4.3-0.5-8.6-0.7-13-0.7
			c-4.3,0.1-8.7,0.2-13,0.7c-4.3,0.5-8.6,1.2-12.8,2.1c-8.4,1.9-16.7,4.7-24.5,8.4c-1,0.5-2,0.9-2.9,1.4l-1.4,0.7l-1.4,0.8l-2.8,1.5
			c-0.9,0.5-1.8,0.9-2.7,1.4c-3.7,1.9-7.5,3.5-11.4,4.9c-3.9,1.4-7.9,2.5-12,3.4c-1,0.2-2,0.4-3.1,0.6l-0.6,0.1
			c0.9-1,1.4-2.3,1.4-3.7c0-3-2.5-5.5-5.5-5.5c-3,0-5.5,2.5-5.5,5.5c0,1.9,1,3.6,2.5,4.6c0.7,0.4,1.5,0.7,2.3,0.8c0.2,0,0.4,0,0.6,0
			c0.1,0,0.2,0,0.3,0c0.5,0,0.9,0,1.4,0l1.6,0l1.6-0.1c1.1,0,2.1-0.1,3.2-0.2c4.3-0.4,8.5-1.2,12.7-2.2c4.2-1.1,8.3-2.4,12.3-4.1
			c1-0.4,2-0.8,3-1.3l2.9-1.3l1.4-0.6l1.4-0.6c0.9-0.4,1.9-0.8,2.9-1.2c7.6-3.1,15.6-5.4,23.6-7c4-0.8,8.1-1.4,12.2-1.8
			c4.1-0.4,8.2-0.6,12.3-0.6c4.1,0,8.2,0.2,12.3,0.6c4.1,0.4,8.1,1,12.2,1.8c8.1,1.6,16,3.9,23.6,7c1,0.4,1.9,0.8,2.9,1.2l1.4,0.6
			l1.4,0.6l2.9,1.3c1,0.5,2,0.9,3,1.3c4,1.7,8.1,3,12.3,4.1c4.2,1,8.4,1.8,12.7,2.2c1.1,0.1,2.1,0.2,3.2,0.2l1.6,0.1l1.6,0
			c0.5,0,1.1,0,1.6,0c0.1,0,0.3,0,0.4,0c0.2,0,0.5,0,0.7,0c0.8-0.1,1.5-0.4,2.2-0.8c1.6-1,2.6-2.7,2.6-4.6
			C854.4,78.9,851.9,76.5,848.9,76.5z"/>
		<path id="XMLID_00000155143314358509134630000015834662893154606467_" class="st2" d="M764.6,42.5c0,4.7-3.8,8.5-8.5,8.5
			c-4.7,0-8.5-3.8-8.5-8.5c0-4.7,8.5-23.8,8.5-23.8S764.6,37.8,764.6,42.5z"/>
	</g>
	<path class="st4" d="M817.1,78.8"/>
	<g>
		<path class="st3" d="M1259.9,235.9c-7.6-6.5-11.3-16.3-10.4-27l4.5-48.3c0.3-3.4,3.3-33.2,12.7-40.9c5.8-4.8,12.1-6.6,18.6-5.3
			c17.1,3.3,31.2,27,35.1,34.1c0.1,0.2,0.2,0.3,0.2,0.3c5.3,7,7.7,18.4,2.2,26.6c-1.9,2.9-4.7,5.1-7.3,7.3c-3.6,2.9-7,5.6-8.4,9.9
			l0,0c-1.7,5.1-0.3,9.9,1.2,15c1.5,5.1,3.1,10.4,1.2,16c-3.3,9.5-16.7,16.1-24.4,18c-2.4,0.6-4.8,0.9-7.2,0.9
			C1271.3,242.5,1265,240.2,1259.9,235.9z"/>
		<g>
			
				<rect x="1222.5" y="298.1" transform="matrix(1.273034e-02 -0.9999 0.9999 1.273034e-02 965.2767 1574.9922)" class="st4" width="115.4" height="1.2"/>
		</g>
		<g>
			
				<rect x="1245.3" y="203.9" transform="matrix(2.252122e-02 -0.9997 0.9997 2.252122e-02 1048.4297 1481.3702)" class="st4" width="72.9" height="1.2"/>
		</g>
		<g>
			<polygon class="st4" points="1282.3,184.3 1263.8,173.1 1264.4,172 1282.2,182.8 1301.4,164.1 1302.3,164.9 			"/>
		</g>
		<g>
			<polygon class="st4" points="1281.6,211.8 1281.4,211.7 1262.1,204.3 1262.5,203.2 1281.7,210.5 1303.6,204.6 1304,205.7 			"/>
		</g>
		<g>
			
				<rect x="1286.1" y="201.6" transform="matrix(0.3621 -0.9321 0.9321 0.3621 636.4759 1334.3389)" class="st4" width="14.1" height="1.2"/>
		</g>
		<g>
			
				<rect x="1270.6" y="164.5" transform="matrix(0.9999 -1.103439e-02 1.103439e-02 0.9999 -1.8058 14.037)" class="st4" width="1.2" height="12.4"/>
		</g>
	</g>
	<g>
		<path class="st3" d="M1212.7,231.3c-3-7.1-2.6-15-2.2-22.6c0.3-4.8,0.5-9.8-0.1-14.5c-0.2-1.5-0.5-3.1-0.8-4.6
			c-0.7-3.8-1.4-7.7-0.8-11.5c1-6.2,5.8-11.5,11.7-13.2c6.1-1.7,12.9,0.6,16.7,5.5c4.2,5.5,4.2,12.8,3.8,20.4l0,0
			c-0.2,4.2-0.4,8.5-0.6,12.8c-0.3,6.3-0.6,12.7-1,19.1c-0.2,3.6-1.6,15.5-10.1,18.5c-1.1,0.4-2.2,0.6-3.2,0.6
			C1220.5,241.6,1215,236.7,1212.7,231.3z"/>
		<g>
			
				<rect x="1225.4" y="241" transform="matrix(0.9998 -1.912647e-02 1.912647e-02 0.9998 -5.1442 23.5012)" class="st4" width="1.2" height="79.4"/>
		</g>
		<g>
			
				<rect x="1224" y="194.2" transform="matrix(0.9995 -3.081267e-02 3.081267e-02 0.9995 -6.1233 37.8354)" class="st4" width="1.2" height="46.8"/>
		</g>
		<g>
			<polygon class="st4" points="1224.4,209.9 1215.1,202.3 1215.9,201.4 1224.2,208.3 1233.8,197.5 1234.7,198.3 			"/>
		</g>
		<g>
			
				<rect x="1220.1" y="218.9" transform="matrix(0.3679 -0.9299 0.9299 0.3679 563.938 1276.2585)" class="st4" width="1.2" height="8.8"/>
		</g>
	</g>
	<g>
		<path class="st5" d="M1172.2,299.7c-24.1-2.2-34,2.6-44.5,8.5c-14.2,8-28.8,16.3-78.6,4.2c-69.1-16.8-88.6-7.9-113.3,3.3
			c-10.3,4.7-22,10-38.5,14c-18.3,4.5-36.7,5.1-58.1,5.9c-14,0.5-152.2,80.4-169.2,82.2h730.6
			C1377.6,406.6,1282.4,309.9,1172.2,299.7z"/>
	</g>
	<g>
		<path class="st2" d="M455.3,271c-5.9-4.3-9.2-11.2-9-19.1l0.6-35.1c0-2.5,0.6-24.2,6.9-30.3c4-3.8,8.5-5.5,13.3-4.9
			c12.6,1.5,24.1,17.8,27.3,22.8l0.1,0.2c4.2,4.8,6.6,12.9,3.1,19.3c-1.3,2.2-3.1,4-4.9,5.7c-2.4,2.3-4.7,4.4-5.5,7.5v0
			c-0.9,3.7,0.3,7.1,1.7,10.6c1.4,3.6,2.8,7.4,1.7,11.6c-1.9,7.1-11.3,12.6-16.7,14.5c-2.2,0.8-4.5,1.1-6.7,1.1
			C462.9,274.8,458.8,273.5,455.3,271z"/>
		<g>
			
				<rect x="471" y="220.6" transform="matrix(0.9988 -4.892225e-02 4.892225e-02 0.9988 -13.6704 23.414)" class="st4" width="1" height="140.8"/>
		</g>
		<g>
			<polygon class="st4" points="468.8,232.5 454.7,225.4 455.2,224.4 468.5,231.2 481.4,216.7 482.1,217.4 			"/>
		</g>
		<g>
			<polygon class="st4" points="469.7,252.3 469.6,252.3 455.2,248 455.5,247 469.7,251.3 485.2,245.8 485.6,246.7 			"/>
		</g>
		<g>
			
				<rect x="472.4" y="244.2" transform="matrix(0.2901 -0.957 0.957 0.2901 104.8476 630.6879)" class="st4" width="10.2" height="1"/>
		</g>
		<g>
			
				<rect x="459.4" y="218.7" transform="matrix(0.9962 -8.726642e-02 8.726642e-02 0.9962 -17.72 40.9889)" class="st4" width="1" height="8.9"/>
		</g>
	</g>
	<g>
		<g>
			<path class="st6" d="M461.7,256.7c0.3-5.9,0.5-12.3-3.1-17c-3.1-4-8.7-5.8-13.6-4.5c-4.9,1.4-8.8,5.8-9.6,10.8
				c-0.8,4.5,0.7,9,1.3,13.6c1.3,10.5-2.2,21.7,1.9,31.4c2.3,5.3,8.1,9.9,13.5,8c5.8-2,7.9-9.7,8.2-15.2
				C460.9,274.8,461.2,265.7,461.7,256.7z"/>
			<path class="st2" d="M438.1,291.2c-2.6-6.1-2.2-12.8-1.9-19.2c0.2-4.1,0.4-8.3-0.1-12.3c-0.2-1.3-0.4-2.6-0.7-3.9
				c-0.6-3.2-1.2-6.5-0.7-9.8c0.9-5.3,4.9-9.8,10-11.3c5.2-1.4,11,0.5,14.3,4.7c3.6,4.7,3.6,10.9,3.2,17.4l0,0
				c-0.2,3.6-0.4,7.2-0.5,10.8c-0.2,5.3-0.5,10.8-0.8,16.2c-0.2,3.1-1.4,13.2-8.6,15.7c-0.9,0.3-1.9,0.5-2.8,0.5
				C444.7,300,440.1,295.9,438.1,291.2z"/>
		</g>
		<g>
			
				<rect x="448.7" y="259.7" transform="matrix(0.9995 -3.081327e-02 3.081327e-02 0.9995 -9.3684 13.989)" class="st4" width="1.1" height="102.5"/>
		</g>
		<g>
			<polygon class="st4" points="448.1,273.1 440.2,266.6 440.9,265.8 448,271.6 456.1,262.6 456.9,263.3 			"/>
		</g>
		<g>
			
				<rect x="444.4" y="280.7" transform="matrix(0.3679 -0.9299 0.9299 0.3679 16.77 593.5558)" class="st4" width="1.1" height="7.4"/>
		</g>
	</g>
	<g>
		<path class="st3" d="M511.7,280.9c-3.3-1.5-6.1-5.5-6.6-9.5c-0.4-2.8-0.1-5.6,0.2-8.4l0.1-1.2c0.3-2.9,0.5-6.2-0.4-9.2
			c-0.3-0.8-0.6-1.7-0.9-2.5c-0.7-1.8-1.5-3.6-1.4-5.6c0.1-2.4,1.4-4.5,2.6-6.5c0.9-1.5,1.9-3,2.3-4.6c0.4-1.5,0.3-3.3,0.3-4.9
			c-0.1-2.5-0.1-5.1,1.3-7.3c1.7-2.6,5.3-3.7,8.3-2.6c2.8,1,5,3.7,5.6,6.9c0.3,1.8,0.1,3.5,0,5.3c-0.2,1.9-0.4,3.7,0,5.4
			c0.4,1.7,1.3,3.1,2.3,4.7c0.4,0.7,0.9,1.4,1.3,2.2c1.7,3.1,1.8,6.1,0.3,8.2c-0.6,0.9-1.5,1.5-2.4,2.1c-1,0.7-1.9,1.3-2.4,2.3
			c-0.7,1.4-0.1,3.1,0.4,4c0.3,0.7,0.7,1.3,1.1,1.9c0.4,0.7,0.9,1.4,1.2,2.2c2.4,5.3-1.1,13.4-5.7,16.5c-1.6,1.1-3.1,1.5-4.4,1.5
			C513.6,281.6,512.5,281.2,511.7,280.9z"/>
		<g>
			
				<rect x="453.4" y="296.1" transform="matrix(2.989180e-03 -1 1 2.989180e-03 216.3149 810.2756)" class="st4" width="122.2" height="1"/>
		</g>
	</g>
	<g>
		<path class="st7" d="M307.1,414.8l1.9-2.7c0.1-0.1-74.7-0.6-73.1-1.1c158.2-56.3,180.5-80.3,221.8-94.9
			c38.1-13.5,75-18.8,121.2-2.7c34.3,12,92.8,26.9,175,5.1c143.2-38.1,175-16.8,228.9,10.1c35.5,17.6,39.9,25,68.4,33.1
			c37.2,10.6,71.9,8.6,114.3,6.7c81.5-3.5,91.4,36.9,133.6,45.4l-2.9,5.2L309.8,412L307.1,414.8z"/>
	</g>
	<path class="st3" d="M1059.6,139.7v-0.7h0.1c1-13.6,8.9-21.2,22.1-21.2c3.3,0,6.5,0.6,9.5,1.8c2.2-4.5,7.5-7.5,13.4-7.5
		c6.6,0,12.3,3.7,13.9,8.9c3.3-2.1,7.4-3.2,11.6-3.2c6.8,0,13.1,3,16.5,7.8c3.1-1.3,6.5-1.8,10-1.6c9.8,0.6,17.5,7.7,17.5,16.1
		c0,7.8-7.7,14.2-17.2,14.2h-79.6C1067.5,154.4,1059.6,147.8,1059.6,139.7z"/>
	<path class="st3" d="M600,110.4H533c-8,0-14.5-5.5-14.5-12.4c0-7.3,6.5-13.5,14.8-14c2.9-0.2,5.8,0.3,8.4,1.3
		c2.9-4.2,8.1-6.7,13.9-6.7c3.5,0,6.9,1,9.7,2.7c1.4-4.5,6.2-7.7,11.8-7.7c5,0,9.4,2.6,11.3,6.4c2.5-1,5.2-1.5,7.9-1.5
		c11.1,0,17.7,6.5,18.6,18.3h0.1v0.7C615,104.7,608.2,110.4,600,110.4z"/>
	<path class="st3" d="M1044.2,99.1H934.1c-13,0-23.5-8.9-23.5-19.9c0-11.8,10.5-21.7,24-22.6c4.8-0.3,9.6,0.5,13.9,2.3
		c4.6-6.9,13.3-11.2,22.7-11.2c5.9,0,11.6,1.7,16.1,4.7c2.1-7.5,10-12.9,19.2-12.9c8.2,0,15.5,4.3,18.4,10.7
		c4.2-1.7,8.6-2.6,13.3-2.6c18.2,0,28.9,10.7,30.3,30.1h0.2v0.7C1068.6,89.9,1057.6,99.1,1044.2,99.1z"/>
</g>
<g id="people">
	<g>
		<polygon class="st8" points="813.5,320.2 811.7,312.6 804.3,312.4 805.4,320.5 		"/>
		<path class="st9" d="M813.5,320.2c0.9,1.8,0.8,3,0.9,4.9c-5.7,0.2-12.8,0.5-18.4,0.7c-1.7-3.3,6.7-3.8,9.5-5.3L813.5,320.2z"/>
	</g>
	<path class="st10" d="M826.6,239.8c1.3,5.4-4.2,23.6-7.9,33.5c-1.4,3.9-2.7,7.2-3.1,8.7c-1.2,4.2,0.8,22.3,1.3,32.1
		c0.1,1.1,0.1,1.9,0.2,3.8l-15.8,0.3c0-0.3-0.1-1.4-0.2-3.6c-0.5-10.4-2.5-30.1-0.7-36.6c0.6-2.3,1.9-5.8,3.5-9.9
		c3-8.1,7.7-24,7.4-25.2L826.6,239.8z"/>
	<g>
		
			<rect x="1056.9" y="270" transform="matrix(0.7085 -0.7058 0.7058 0.7085 126.5759 847.1077)" class="st11" width="63.5" height="0.6"/>
	</g>
	<path class="st12" d="M1129.8,209.9c-0.5,1.2-2.2,3.6-2.7,4.8c-2.5,6.4-2.4,12.8-4.9,19.2c-0.2,0.6-0.5,1.3-0.3,1.9
		c0.3,1,1.5,1.4,2.5,1.1c1-0.3,4.3-1.1,5-1.8c5.1-5.8,6.5-12.6,9.1-19.9L1129.8,209.9z"/>
	<path class="st12" d="M1111.1,250.7c-0.6,0.3-1.5,0.5-1.9,0c-0.4-0.5-1.5-1.3-1.2-1.9c2.4-5.1,14.4-17.2,16.9-17.3
		c2.3-0.1,7.2,1.2,6.4,3.4C1129.5,239.4,1113.6,249.6,1111.1,250.7z"/>
	<path class="st12" d="M1107.5,246.3c-1.5,0.6-2.9,1.6-3.4,3.2c-0.4,1.2-0.2,2.6,0.2,3.8c0.2,0.5,0.6,1.1,1.2,1
		c0.5-0.1,0.7-0.6,1.1-1c0.7-0.9,2-0.9,3.1-1.3c1.2-0.4,2.2-1.3,2.7-2.5c0.4-0.9,0.8-3.1-0.2-3.8
		C1111.1,245.1,1108.5,245.9,1107.5,246.3z"/>
	<g>
		<g>
			<g>
				<g>
					
						<rect x="961.6" y="367.8" transform="matrix(-0.9987 5.077924e-02 -5.077924e-02 -0.9987 1943.2239 693.2757)" class="st11" width="2.5" height="7.1"/>
				</g>
				<g>
					<path class="st11" d="M938.1,375.3c0.2,0.7,0.7,1.2,1.4,1.4c0.6,0.2,1.2,0.3,2,0.4c6,0.6,9.3-3.7,16.2-5.4
						c0.9-0.2,2-0.4,3.3-0.5c2.6-0.2,4.4-2.7,3.7-5.2c-0.2-0.5-1.2-3.4-3.6-4c-0.8-0.2-1.9-0.3-4.1,1.1c-9.5,5.5-9.8,8.2-13.8,8.8
						c-1.4,0.2-3.8,0.3-4.7,1.8C938.1,374.3,938.1,374.9,938.1,375.3z"/>
				</g>
				<g>
					<path class="st12" d="M950.1,367.9c-0.2,0.3-0.3,0.4-0.2,0.5c0.1,0.3,0.7,0.4,1.1,0.2c0.1,0,0.1-0.1,0.2-0.1
						c0.6-0.4,3.8-2,4.6-2.5c2-1,2.5-0.8,4.6-2c1.3-0.7,1.7-1.1,1.7-1.5c0-0.7-1.4-0.7-2.7-2.1c-0.9-0.9-1-1.7-1.4-1.7
						c-0.5,0-0.6,1-1.6,2.5c-0.5,0.7-0.6,0.8-2.4,2.6c-0.4,0.4-0.9,0.9-1.4,1.6l0,0c-0.6,0.6-1.1,1.1-1.4,1.4
						C951,366.8,950.6,367.2,950.1,367.9z"/>
				</g>
			</g>
			<g>
				<path class="st13" d="M950.9,364c4.5-0.6,9.1-1.1,13.6-1.7c1.3-22.6,0.7-39.8-0.8-47.7c-1.1-5.6-1.9-8-1.9-8
					c-2-5.7-4.3-7.9-5.2-13c-0.4-2.6-0.3-4.7-0.1-6c-4.2-3.2-8.4-6.5-12.6-9.7c-1.6,4-3.2,9.9-2.5,16.8c0.5,5.3,2.1,8.2,3.6,12.3
					c2.2,5.9,2.9,14.4,4.3,31.4C949.9,345.1,950.5,353.8,950.9,364z"/>
			</g>
			<g>
				<path class="st13" d="M941.4,288.9c1,0,2.1,0,3.3,0c4.4,0.3,8,1.6,10.6,2.9c22.7-37.9,34.5-67.7,31.9-72.7
					c-3.4-6.5-8.6-9.1-8.6-9.1c-0.2-0.1-0.3-0.2-0.3-0.2c0,0,0,0,0,0c0,0-6.5-1.4-13.3,0C959.6,210.9,947.3,242.3,941.4,288.9z"/>
			</g>
			<g>
				<g>
					
						<rect x="997.8" y="371" transform="matrix(-0.9997 -2.495192e-02 2.495192e-02 -0.9997 1988.4453 773.8633)" class="st11" width="2.5" height="7.1"/>
				</g>
				<g>
					<path class="st11" d="M974.2,376.6c0.1,0.7,0.6,1.3,1.3,1.5c0.5,0.2,1.2,0.4,1.9,0.5c6,1.1,9.6-3,16.5-4.1
						c0.9-0.1,2-0.3,3.3-0.3c2.6,0,4.6-2.4,4.1-5c-0.1-0.5-0.9-3.5-3.3-4.2c-0.8-0.3-1.8-0.4-4.2,0.8c-9.9,4.8-10.4,7.4-14.5,7.8
						c-1.4,0.1-3.8,0-4.8,1.5C974.2,375.6,974.1,376.2,974.2,376.6z"/>
				</g>
				<g>
					<path class="st12" d="M986.6,370.2c-0.2,0.3-0.3,0.4-0.3,0.5c0.1,0.3,0.7,0.4,1.1,0.3c0.1,0,0.1-0.1,0.2-0.1
						c0.6-0.3,3.9-1.7,4.8-2.1c2.1-0.9,2.5-0.6,4.8-1.7c1.3-0.6,1.8-1,1.8-1.4c0-0.7-1.4-0.8-2.6-2.3c-0.8-1-0.9-1.8-1.3-1.8
						c-0.5,0-0.7,0.9-1.8,2.3c-0.6,0.7-0.7,0.7-2.6,2.4c-0.4,0.4-0.9,0.9-1.6,1.5l0,0c-0.6,0.6-1.2,1-1.5,1.3
						C987.7,369.1,987.2,369.5,986.6,370.2z"/>
				</g>
			</g>
			<g>
				<path class="st4" d="M987.8,366.3c4.6-0.2,9.1-0.4,13.7-0.6c3-22.4,3.7-39.7,2.8-47.6c-0.7-5.7-1.3-8.2-1.3-8.2
					c-1.6-5.8-3.7-8.2-4.2-13.3c-0.2-2.6,0.1-4.7,0.3-5.9c-3.9-3.5-7.9-7.1-11.8-10.6c-1.9,3.9-3.9,9.6-3.8,16.6
					c0.1,5.3,1.5,8.3,2.7,12.6c1.7,6,1.8,14.6,1.9,31.6C988.2,347.4,988.1,356.1,987.8,366.3z"/>
			</g>
			<g>
				<path class="st4" d="M984.8,295.6c0.9-0.4,1.9-0.8,3-1.2c4.2-1.4,8-1.5,10.9-1.3c6.9-43.6,6.7-75.7,2.4-79.3
					c-5.6-4.8-11.3-5.3-11.3-5.3c-0.2,0-0.4,0-0.4,0h0c0,0-6.5,1.1-12.4,5C972.5,216.5,972.9,250.2,984.8,295.6z"/>
			</g>
			<g>
				<g>
					<path class="st14" d="M962.3,184.3c-0.8,2.8-3.6,4.6-6.5,4.1c-0.9-0.2-1.5-0.5-2-0.9c-3.2-2.6-0.2-8.7,1.5-25
						c1.1-10.5,1.3-13.8,1.3-13.8c0.5-8.2,0.4-12.5,3.5-15.4c1.8-1.7,4-2.2,5.6-2.4c0.6,0,1.5,0.1,2.4,0.7c2,1.2,2.4,3.8,2.6,5.4
						c1.1,9.1-1.6,21.1-2.9,26.7c-0.1,0.5-0.5,1.9-1,4C965.2,174.4,963.6,180,962.3,184.3z"/>
				</g>
				<g>
					<path class="st12" d="M961.3,183.8c0-2.4-3.1-4.4-5.7-5.2c-3.7-1.1-6.8,0.2-11.3,1.2c-7.2,1.7-13,1.8-17.9,1.8
						c-11.7,0-17.5-4.3-21.3-5.6c-0.7-0.2-2.7,3.8-3.4,4.5c-0.7,0.8,0.4,2.9,1.5,4.2c0.5,0.6,2.2,2.3,9.9,3.5
						c2.1,0.3,3.8,0.5,4.4,0.6c7,0.7,10.5,0.9,13.3,1.2c17.2,1.3,20.8-0.1,25.5-1C959.2,188.4,961.3,186.3,961.3,183.8z"/>
				</g>
				<g>
					<path class="st12" d="M900,182.7c-0.7-0.9-2.4-3.5-2.7-6.9c-0.1-0.8,0-1.6,0.5-2.1c0.7-0.8,2.5-0.2,3.6,0.6
						c1.2,0.8,1,1.5,2,2.2c1.6,1.1,2.9,0,3.9,0.9c0.9,0.9,1.9,1.5,1.5,4.5c-0.1,0.8-1.4,2.9-1,3.9c0.2,0.4,0.3,0.6,0.3,0.8
						c-0.3,0.6-2.7,0.2-4.5-0.7C901.8,185,900.9,183.8,900,182.7z"/>
				</g>
			</g>
			<g>
				<path class="st15" d="M948.5,226.4c6.9,2.5,16.7,5.3,28.7,6.1c13.2,0.9,24.1-1,31.6-2.8c4.4-15.3,2.7-25.9,0.1-32.9
					c-2.1-5.7-4.7-8.9-6.7-13.4c-1.1-2.4-2-5.2-2.7-9c-0.7-4-0.2-4.5-0.4-20.3c-0.2-15.8-0.9-17.4-1.5-19.1c0,0-0.6-1.5-1.8-3.3
					c-0.5-0.8-1.1-1.6-1.8-2.3c-7.5-8.1-16.3-7.2-16.3-7.2c-5.2,0.6-8.7,3.4-10.3,4.9c-4.6,5.6-6.3,10.7-7,13.7
					c-0.2,1-2.6,11.7,1.3,21.3c0.7,1.7,2.2,5.6,3.4,11.3c0.2,1,0.4,2.2,0.5,3.8c0.3,7-1.6,12-5.8,22.3
					C955.4,210.2,951.6,219.4,948.5,226.4z"/>
			</g>
			<g>
				<path class="st16" d="M954,98.6C954,98.6,954,98.6,954,98.6c0.2-0.1,1.1,3.3,0.8,6.9c-0.1,1-0.3,2-0.7,3.2
					c-1.1,3.4-2.8,4-2.6,6.4c0.2,2.7,2.5,5.3,5,5.8c1.7,0.3,2.3-0.7,5.2-1.6c3.4-1.2,3.6-1,9.5-1.1c3.2-0.1,6.8-0.8,8.7-3.4
					c0.5-0.7,0.8-1.5,1.4-2.1c1.4-1.5,3.8-1.7,5.5-2.8c1.7-1,2.8-2.9,2.9-4.9c0-1.7-0.9-3-1.3-3.6c-1.4-1.9-2.8-1.9-4.4-3.3
					c-2.2-2-1.3-3.7-3.1-6.9c-2.7-4.7-7.9-6.3-8.4-6.4c-3.8-1-7-0.1-8.6,0.4c-1.9,0.6-6,1.8-8.1,5.5C953.8,94.1,954,98.6,954,98.6z"
					/>
			</g>
			<g>
				<path class="st17" d="M985.1,124.7c-0.7,1-3.2,4.3-7.9,5.5c-3.7,1-6.7,0.2-8-0.2c0.3-0.5,0.6-1.4,0.9-2.6c0.2-0.7,0.6-2.8,0-7.4
					c-0.2-1.2-0.3-2.1-0.7-3.8c-0.6-2.8-1.3-6.1-2.3-9.8c-0.4-1.4-0.8-2.9-1.2-4.5c3.5-0.6,6.9-1.2,10.4-1.7
					c0.3-0.1,0.6-0.1,0.9-0.2c0,0.6-0.1,1.6-0.1,2.7c0,2.9,0,8.7,2.9,14.7C980.9,119.2,982.5,121.9,985.1,124.7z"/>
			</g>
			<g>
				<path class="st12" d="M979.1,115.2c-0.1,0.4-0.2,0.7-0.3,1.1c-0.4,1.2-0.9,2.4-2,3.4c-1.4,1.3-3.7,2.1-5.8,1.5
					c-0.2-0.1-0.4-0.1-0.6-0.2c-0.2-1.3-0.4-2.5-0.7-3.8c-0.6-2.8-1.3-6.1-2.3-9.8c3.3-1.2,6.7-2.4,10-3.6
					C977.3,106.7,977.6,110.8,979.1,115.2z"/>
			</g>
			<g>
				<path class="st17" d="M959.4,97.5c-1.1,1.9-0.9,3.9-0.5,7.8c0.3,3.3,0.5,5,1.6,6.9c1.3,2.2,4.6,5.8,8.6,5.8
					c5.5,0,10.1-6.9,10.2-12.7c0.1-5.3-3.4-12.5-9.7-13.1C965.3,91.8,961.1,94.5,959.4,97.5z"/>
			</g>
			<g>
				<path class="st16" d="M959.4,96.7c-0.9,1.7-1.3,3.7-1.1,5.6c0.1,1.2-0.9,2.3-2.2,2.2l0,0c-0.8-0.1-1.4-0.5-1.7-1.2
					c-1.7-3.8-1.2-8.6,1.4-11.9c0.8-1.1,1.9-2,3.1-2.5c0.8-0.3,1.6-0.5,2.4-0.5c1.6-0.1,3.4,0.1,4.3,1.5c1.7,2.5,0,2.7-1.7,3.3
					C961.9,93.9,960.4,94.9,959.4,96.7z"/>
			</g>
			<g>
				<path class="st16" d="M979.6,107.6c0.3-0.2,0.7-0.4,1-0.6c1-0.6,1.6-1.7,1.4-2.9l-0.9-7c-0.9-6.7-7-11.3-13.7-10.4h0
					c-1.2,0.2-2.1,1-2.4,2.2c-0.7,2.9-0.4,4.8,0.4,6.2c1.7,3.2,5.4,3,8,6.3c1,1.3,1.6,2.8,1.9,4.3
					C975.6,107.7,977.9,108.7,979.6,107.6z"/>
			</g>
			<g>
				<g>
					<path class="st16" d="M967.5,106.7c-0.4,0-0.8-0.1-1.1-0.3c-0.5-0.3-0.9-0.8-1-1.3l-0.2-0.8c-0.3-1.2,0.4-2.3,1.6-2.6l3.8-1
						c0.6-0.1,1.1-0.1,1.6,0.2c0.5,0.3,0.9,0.8,1,1.3l0.2,0.8c0.3,1.2-0.4,2.3-1.6,2.6l-3.8,1C967.8,106.7,967.7,106.7,967.5,106.7z
						 M971.1,101.2c-0.1,0-0.3,0-0.4,0.1l-3.8,1c-0.8,0.2-1.3,1.1-1.1,1.9l0.2,0.8c0.1,0.4,0.4,0.7,0.7,1c0.4,0.2,0.8,0.3,1.2,0.2
						l3.8-1c0.8-0.2,1.3-1.1,1.1-1.9l-0.2-0.8c-0.1-0.4-0.4-0.7-0.7-1C971.6,101.2,971.3,101.2,971.1,101.2z"/>
				</g>
			</g>
			<g>
				<g>
					<path class="st16" d="M959.2,108.8c-1,0-1.8-0.6-2.1-1.6l-0.2-0.8c-0.3-1.2,0.4-2.3,1.6-2.6l3.8-1c0.6-0.1,1.1-0.1,1.6,0.2
						c0.5,0.3,0.9,0.8,1,1.3l0.2,0.8c0.3,1.2-0.4,2.3-1.6,2.6l-3.8,1C959.5,108.8,959.3,108.8,959.2,108.8z M962.8,103.3
						c-0.1,0-0.3,0-0.4,0.1l-3.8,1c-0.8,0.2-1.3,1.1-1.1,1.9l0.2,0.8c0.2,0.8,1.1,1.3,1.9,1.1l3.8-1c0.8-0.2,1.3-1.1,1.1-1.9
						l-0.2-0.8c-0.1-0.4-0.4-0.7-0.7-1C963.3,103.4,963,103.3,962.8,103.3z"/>
				</g>
			</g>
			<g>
				<path class="st14" d="M987.5,165.5c0.4,6.7,0.6,11.9,4.6,15.6c1.3,1.2,2.6,1.8,3.6,2.2c0.5,0.3,2.3,1.4,4.6,0.9
					c0.8-0.2,1.5-0.6,1.9-0.9c-1.1-2.4-2-5.2-2.7-9c-0.7-4-0.2-4.5-0.4-20.3c-0.2-15.8-0.9-17.4-1.5-19.1c0,0-0.6-1.5-1.8-3.3
					c-0.1,0-0.3-0.1-0.4-0.1c-3.1-0.4-5.6,1.6-6.1,2C985.6,136.5,987.2,160.7,987.5,165.5z"/>
			</g>
		</g>
		<g>
			<polygon class="st18" points="994.7,179.7 946.7,189.6 899.2,176.8 942.4,168.6 			"/>
		</g>
		<g>
			<path class="st19" d="M944.9,189.1L900.1,177c-0.5-0.1-0.9-0.6-1-1.1l-4.5-43.9c-0.1-0.8,0.7-1.5,1.6-1.3l45.1,9
				c0.6,0.1,1,0.6,1,1.1l4.2,46.9C946.6,188.7,945.8,189.3,944.9,189.1z"/>
		</g>
		<g class="st20">
			<path class="st18" d="M944.3,188.4l-44.6-12l42.1-36.4c0,0.1,0,0.1,0,0.2l4.2,46.9C946,188,945.2,188.6,944.3,188.4z"/>
		</g>
		<g>
			<path class="st21" d="M923.1,158.5c0.4,3.2-1.4,6-4.1,6.4c-2.7,0.3-5.1-2-5.5-5.2s1.4-6,4.1-6.4S922.7,155.3,923.1,158.5z"/>
		</g>
		<g>
			<g>
				<path class="st15" d="M1010.4,180.4c0.3,2.9-1.7,5.6-4.6,6.2c0,0-1,0.2-2.2-0.1c-5.4-1.6-10.5-19.4-11.2-21.9
					c-6.3-22.3-7.6-27.9-4.3-31.7c0.4-0.5,2.6-3,5.7-3.1c3.3-0.1,5.8,2.4,6.9,3.7c2.1,2.2,4.2,5.7,7.1,25.9c0.1,0.5,0.3,1.9,0.6,4
					C1009.3,170.1,1009.9,175.9,1010.4,180.4z"/>
			</g>
			<g>
				<path class="st17" d="M1009.6,186c1.3-2-0.1-5.4-1.8-7.5c-2.7-3.3-6.1-3.9-10.1-5.3c-5.8-2-9.3-4.7-15.4-9.2
					c-3.9-2.9-10.4-8.4-17-12.5c-1.2-0.8-3.9-2.3-5.7-1.3c-1.2,0.7-1.5,2.1-1.5,2.2c-0.6,3.1,3.8,6.3,8.9,10.3
					c7.9,6.2,3.4,3.2,13.6,11.3c13.5,10.7,17.2,11.6,21.7,13.5C1005.2,188.7,1008.2,188.1,1009.6,186z"/>
			</g>
			<g>
				<path class="st17" d="M957.5,157.4c-1.8,0-4.2-0.1-6.8-1.1c-1.1-0.4-1.5-0.8-1.7-1.3c-0.5-1.1,0.7-2.3,2-3
					c3.1-1.8,6.9-2.5,10.6-2.1c1,0.1,2,0.4,2.6,1c0.1,0.1,0.4,0.5,0.5,1.2c0.3,1.6-0.5,3.6-1.9,4.6
					C961.7,157.4,960.3,157.4,957.5,157.4z"/>
			</g>
		</g>
	</g>
	<g>
		
			<rect x="677.8" y="245.2" transform="matrix(0.9523 -0.3052 0.3052 0.9523 -60.0058 222.2434)" class="st19" width="6.2" height="115.7"/>
		<g>
			<rect x="629.3" y="290.3" class="st18" width="0.4" height="82.7"/>
		</g>
		<g>
			<rect x="588.4" y="332.6" class="st18" width="82.7" height="0.4"/>
		</g>
		<g>
			
				<rect x="628.9" y="291.8" transform="matrix(0.4066 -0.9136 0.9136 0.4066 69.0679 772.3322)" class="st18" width="0.4" height="82.4"/>
		</g>
		<g>
			<path class="st18" d="M629.3,374.2c-11.6,0-22.6-4.5-30.8-12.8c-8.2-8.2-12.8-19.2-12.8-30.8c0-11.6,4.5-22.6,12.8-30.8
				c8.2-8.2,19.2-12.8,30.8-12.8s22.6,4.5,30.8,12.8c8.2,8.2,12.8,19.2,12.8,30.8c0,11.6-4.5,22.6-12.8,30.8
				C651.9,369.7,641,374.2,629.3,374.2z M629.3,292.6c-21,0-38.1,17.1-38.1,38.1c0,21,17.1,38.1,38.1,38.1s38.1-17.1,38.1-38.1
				C667.4,309.7,650.3,292.6,629.3,292.6z"/>
		</g>
		<g>
			<path class="st18" d="M629.3,376.2c-6.1,0-12-1.2-17.6-3.6c-5.4-2.3-10.2-5.5-14.4-9.7c-4.2-4.2-7.4-9-9.7-14.4
				c-2.4-5.6-3.6-11.5-3.6-17.6c0-6.1,1.2-12,3.6-17.6c2.3-5.4,5.5-10.2,9.7-14.4c4.2-4.2,9-7.4,14.4-9.7c5.6-2.4,11.5-3.6,17.6-3.6
				c6.1,0,12,1.2,17.6,3.6c5.4,2.3,10.2,5.5,14.4,9.7c4.2,4.2,7.4,9,9.7,14.4c2.4,5.6,3.6,11.5,3.6,17.6s-1.2,12-3.6,17.6
				c-2.3,5.4-5.5,10.2-9.7,14.4c-4.2,4.2-9,7.4-14.4,9.7C641.4,375,635.4,376.2,629.3,376.2z M629.3,291.1
				c-22,0-39.9,17.9-39.9,39.9c0,22,17.9,39.9,39.9,39.9s39.9-17.9,39.9-39.9C669.2,309,651.3,291.1,629.3,291.1z"/>
		</g>
		<g>
			<rect x="588.4" y="332.6" class="st18" width="82.7" height="0.4"/>
		</g>
		<g>
			
				<rect x="627.8" y="290.3" transform="matrix(0.7404 -0.6722 0.6722 0.7404 -59.9226 508.2204)" class="st18" width="0.4" height="82.9"/>
		</g>
		<g>
			
				<rect x="588.4" y="331.7" transform="matrix(0.748 -0.6637 0.6637 0.748 -61.5937 501.5868)" class="st18" width="82.6" height="0.4"/>
		</g>
		<g>
			
				<rect x="629.1" y="290.3" transform="matrix(0.9313 -0.3642 0.3642 0.9313 -77.7391 252.0098)" class="st18" width="0.4" height="83.6"/>
		</g>
		<g>
			
				<rect x="628.9" y="291.8" transform="matrix(0.4066 -0.9136 0.9136 0.4066 69.0679 772.3322)" class="st18" width="0.4" height="82.4"/>
		</g>
		<g>
			
				<rect x="588.9" y="330.8" transform="matrix(0.4004 -0.9163 0.9163 0.4004 74.5222 775.9615)" class="st18" width="82.6" height="0.4"/>
		</g>
		<g>
			
				<rect x="588" y="332.4" transform="matrix(0.9372 -0.3489 0.3489 0.9372 -76.458 240.6304)" class="st18" width="83.6" height="0.4"/>
		</g>
		<g>
			<path class="st18" d="M629.3,374.2c-11.6,0-22.6-4.5-30.8-12.8c-8.2-8.2-12.8-19.2-12.8-30.8c0-11.6,4.5-22.6,12.8-30.8
				c8.2-8.2,19.2-12.8,30.8-12.8s22.6,4.5,30.8,12.8c8.2,8.2,12.8,19.2,12.8,30.8c0,11.6-4.5,22.6-12.8,30.8
				C651.9,369.7,641,374.2,629.3,374.2z M629.3,292.6c-21,0-38.1,17.1-38.1,38.1c0,21,17.1,38.1,38.1,38.1s38.1-17.1,38.1-38.1
				C667.4,309.7,650.3,292.6,629.3,292.6z"/>
		</g>
		<g>
			<path class="st22" d="M629.3,376.2c-6.1,0-12-1.2-17.6-3.6c-5.4-2.3-10.2-5.5-14.4-9.7c-4.2-4.2-7.4-9-9.7-14.4
				c-2.4-5.6-3.6-11.5-3.6-17.6c0-6.1,1.2-12,3.6-17.6c2.3-5.4,5.5-10.2,9.7-14.4c4.2-4.2,9-7.4,14.4-9.7c5.6-2.4,11.5-3.6,17.6-3.6
				c6.1,0,12,1.2,17.6,3.6c5.4,2.3,10.2,5.5,14.4,9.7c4.2,4.2,7.4,9,9.7,14.4c2.4,5.6,3.6,11.5,3.6,17.6s-1.2,12-3.6,17.6
				c-2.3,5.4-5.5,10.2-9.7,14.4c-4.2,4.2-9,7.4-14.4,9.7C641.4,375,635.4,376.2,629.3,376.2z M629.3,291.1
				c-22,0-39.9,17.9-39.9,39.9c0,22,17.9,39.9,39.9,39.9s39.9-17.9,39.9-39.9C669.2,309,651.3,291.1,629.3,291.1z"/>
		</g>
		<g>
			
				<ellipse transform="matrix(0.7071 -0.7071 0.7071 0.7071 -50.8472 542.2079)" class="st18" cx="629.1" cy="332.5" rx="7.6" ry="7.6"/>
		</g>
		<g>
			
				<ellipse transform="matrix(0.1602 -0.9871 0.9871 0.1602 200.1229 900.1804)" class="st18" cx="629.1" cy="332.5" rx="3.5" ry="3.5"/>
		</g>
		<polygon class="st19" points="710.1,357.7 648.2,370.2 641,365.5 702.9,353.1 		"/>
		<path class="st18" d="M647,289.2c-20.5,6.7-61.2,2.6-82.9,2.1l-19.9-75.1c-3.1-11,8.6-21.3,26.2-23h0c17.6-1.7,34.4,5.9,37.6,16.9
			C613.5,273.5,639.9,263.5,647,289.2z"/>
		<g>
			<rect x="583" y="293.9" class="st18" width="1.2" height="82.7"/>
		</g>
		<g>
			<rect x="542.4" y="335.7" class="st18" width="82.7" height="1.2"/>
		</g>
		<g>
			
				<rect x="582.5" y="295.3" transform="matrix(0.4066 -0.9136 0.9136 0.4066 38.5536 732.4053)" class="st18" width="1.2" height="82.4"/>
		</g>
		<path class="st23" d="M583.3,382.7c-26.8,0-48.5-21.8-48.5-48.5c0-26.8,21.8-48.5,48.5-48.5c26.8,0,48.5,21.8,48.5,48.5
			C631.9,361,610.1,382.7,583.3,382.7z M583.3,301.1c-18.3,0-33.1,14.9-33.1,33.1c0,18.3,14.9,33.1,33.1,33.1
			c18.3,0,33.1-14.9,33.1-33.1C616.5,315.9,601.6,301.1,583.3,301.1z"/>
		<path class="st11" d="M583.3,384.7c-27.7,0-50.3-22.6-50.3-50.3c0-27.7,22.6-50.3,50.3-50.3c27.7,0,50.3,22.6,50.3,50.3
			C633.6,362.2,611.1,384.7,583.3,384.7z M583.3,299.6c-19.2,0-34.9,15.6-34.9,34.9c0,19.2,15.6,34.9,34.9,34.9
			c19.2,0,34.9-15.6,34.9-34.9C618.2,315.2,602.6,299.6,583.3,299.6z"/>
		<g>
			<rect x="542.4" y="335.7" class="st18" width="82.7" height="1.2"/>
		</g>
		<g>
			
				<rect x="581.4" y="293.8" transform="matrix(0.7404 -0.6722 0.6722 0.7404 -74.2333 478.2213)" class="st18" width="1.2" height="82.9"/>
		</g>
		<g>
			
				<rect x="542.4" y="334.9" transform="matrix(0.748 -0.6637 0.6637 0.748 -75.5234 471.9568)" class="st18" width="82.6" height="1.2"/>
		</g>
		<g>
			
				<rect x="582.7" y="293.8" transform="matrix(0.9313 -0.3642 0.3642 0.9313 -82.1828 235.5003)" class="st18" width="1.2" height="83.6"/>
		</g>
		<g>
			
				<rect x="582.5" y="295.3" transform="matrix(0.4066 -0.9136 0.9136 0.4066 38.5536 732.4053)" class="st18" width="1.2" height="82.4"/>
		</g>
		<g>
			
				<rect x="542.9" y="334" transform="matrix(0.4004 -0.9163 0.9163 0.4004 43.7059 735.9229)" class="st18" width="82.6" height="1.2"/>
		</g>
		<g>
			
				<rect x="542" y="335.5" transform="matrix(0.9372 -0.3488 0.3488 0.9372 -80.5714 224.7555)" class="st18" width="83.6" height="1.2"/>
		</g>
		<path class="st19" d="M583.3,382.7c-26.8,0-48.5-21.8-48.5-48.5c0-26.8,21.8-48.5,48.5-48.5c26.8,0,48.5,21.8,48.5,48.5
			C631.9,361,610.1,382.7,583.3,382.7z M583.3,301.1c-18.3,0-33.1,14.9-33.1,33.1c0,18.3,14.9,33.1,33.1,33.1
			c18.3,0,33.1-14.9,33.1-33.1C616.5,315.9,601.6,301.1,583.3,301.1z"/>
		<path class="st11" d="M583.1,351.3c-8.4,0-15.3-6.9-15.3-15.3c0-8.4,6.9-15.3,15.3-15.3c8.4,0,15.3,6.9,15.3,15.3
			C598.4,344.4,591.5,351.3,583.1,351.3z M583,336c0,0.1,0.1,0.1,0.1,0.1c0.1,0,0.1-0.1,0.1-0.1c0-0.1-0.1-0.1-0.1-0.1
			C583,335.9,583,335.9,583,336z"/>
		<circle class="st18" cx="583.1" cy="336" r="3.5"/>
		<g>
			<path class="st24" d="M617.6,242.5c-0.1,0.8-0.2,1.5-0.6,2.2c-0.5,0.8-1.1,1.4-1.5,1.6c-0.6,0.5-1.3,0.9-1.9,1.4
				c-3.3,1.5-5.4,1.2-6.5,0.8c-6.2-2.1-7.7-13.6-8.3-18.3c-0.2-1.8-0.5-4.6-0.5-4.8c-0.1-3.1-0.3-6.3-0.4-9.4l15.1-3.2
				c-0.3,2.8,0.2,7.1,1.1,12.3c0.4,2.2,0.6,3.5,0.7,4.2c0.7,3.5,1.6,6.3,2.3,8.4C617.3,238.6,617.8,240.4,617.6,242.5z"/>
		</g>
		<g>
			<path class="st25" d="M672.3,247.4c-0.6,0.3-1.2,0.5-1.7,0.6c-3.8,0.6-6.9-3.3-7.2-3.7c-0.9-2.3-1.9-4.5-2.8-6.8
				c0.8-0.2,2-0.3,3.3-0.2c2.5,0.2,4.3,1,5.4,1.5c2.3,1.1,4.4,2.1,4.9,4.1c0.1,0.3,0.4,1.4-0.1,2.6
				C673.6,246.6,672.6,247.2,672.3,247.4z"/>
		</g>
		<g>
			<path class="st24" d="M663.7,244c-5.4,2.7-14.4,6.6-26.1,8.1c-2.9,0.4-29.8,3.9-33.9-5.8c-2.1-4.8,1.7-12.6,5.6-13.3
				c1.8-0.3,2.7,1.8,6.3,3.8c3.5,1.9,6.5,2.2,9.8,2.5c11.3,1.2,30.1-1.8,36.5-2.2c0.5,0,1.5-0.1,2.2,0.6
				C665.3,239,664.5,241.9,663.7,244z"/>
		</g>
		<g class="st26">
			<path class="st24" d="M613.8,223.9c-0.8,1-2.8,3.2-6.2,4.5c-4.2,1.5-7.8,0.6-9,0.2c-0.2-1.7-0.3-3.3-0.5-5.1
				c-0.2-3.1-0.4-6.2-0.5-9.1c5.1-1.1,10.3-2.2,15.4-3.2c-0.1,1.5-0.1,3,0,4.6C613.1,218.7,613.4,221.4,613.8,223.9z"/>
		</g>
		<g>
			<path class="st4" d="M605.2,189.9c-8.2,4.2-9.3,16.9-9.6,19.9c-0.1,0.8-0.3,4.2,0.7,8.2c0.7,2.6,1.4,3.6,1.8,4
				c1.6,2,3.8,2.4,4.7,2.6c0.7,0.1,3.6,0.6,6.7-1.1c2.9-1.6,4.4-4.3,5.1-5.8c4.5-8.6,5.5-25.2-1.5-28.6
				C609.9,187.5,606.2,189.4,605.2,189.9z"/>
		</g>
		<g>
			<path class="st27" d="M599.6,283.9c14.5,2.8,24.6,1.2,38.9,0.2c6.3-0.4,14.7-0.8,24.9-0.8c6,0,8.9-7.4,4.4-11.4c0,0,0,0,0,0
				c0,0,0,0,0,0c-3.9-3.4-8.7-5.6-13.8-6.3c-21.2-2.8-42.4-5.7-63.6-8.5c-2-0.3-3.9,0.6-5.1,2.2c-2.8,3.8-6.9,10.9-3.4,16.8
				C582.5,277,585.2,281.1,599.6,283.9z"/>
		</g>
		<g>
			<path class="st28" d="M679.5,350.9l7-1.1c-3.8-10.6-7.5-22.9-10.5-36.6c-2.7-12.5-4.4-24.1-5.4-34.5c-0.2-2.5-1.2-4.9-2.9-6.7
				c-1.4-1.6-3.1-2.6-4.9-2.7c-2.4-0.1-4.3,2.1-7.5,3.4c-1.2,0.5-2.7,1.5-4.1,3.9c1.3,8.3,3.2,17.5,6.3,27.4
				C663.6,323.5,671.9,339.3,679.5,350.9z"/>
		</g>
		<g>
			<polygon class="st11" points="680,355.9 691.5,352 684.8,347 678.3,349.2 			"/>
		</g>
		<g>
			<path class="st29" d="M681.2,360.8c0.8-0.1,2-0.3,3.3-0.7c2.4-0.8,2.5-1.5,4.5-2.3c3.1-1.3,5.2-0.4,8.3-1.7c1-0.4,2-1,2-1
				c0.4-0.2,0.8-0.5,1.3-0.8c0.3-0.2,0.5-0.5,0.8-0.7c0.6-0.7,0.3-1.9-0.6-2.2c-0.3-0.1-0.7-0.2-1.1-0.3c-2.3-0.5-4.2-0.3-5.4,0
				c-1.3-0.7-3.2-1.3-5-0.7c-1.2,0.4-1.8,1.1-2.7,1.9c-1.3,1-3.5,2.1-7.1,2.1c-1.2,1.5-1.4,3.6-0.5,5
				C679.6,360.4,680.9,360.7,681.2,360.8z"/>
		</g>
		<g>
			<path class="st30" d="M590.3,284.6c16.5,3.4,20.9,1.8,38.9,0.8c13.2-0.7,17.6,5.1,24.9,1.5c1.2-0.6,6.9-3.5,7.1-7.7
				c0.1-2.9-2.3-5.1-3.3-6c-8.7-8-69.2-13.4-79.4-14.3c-1.2,0.9-3.6,3.1-4.9,6.7c-2.3,6.7,1.6,12.6,2.1,13.3
				C578.5,283,582.9,283.1,590.3,284.6z"/>
		</g>
		<g>
			<path class="st30" d="M648.8,355.2l7,0.9c-0.6-11.3-0.6-24.1,0.5-38.1c1-12.7,2.7-24.3,4.7-34.6c0.5-2.5,0.2-5-0.8-7.3
				c-0.9-1.9-2.2-3.3-3.9-4c-2.2-0.8-4.7,0.8-8.1,1.1c-1.2,0.1-3,0.6-5,2.5c-1.2,8.3-2,17.7-1.9,28.1
				C641.5,324.4,645,341.9,648.8,355.2z"/>
		</g>
		<g>
			<polygon class="st11" points="647.9,360.3 660.1,359.9 655.1,353.2 648.2,353.5 			"/>
		</g>
		<g>
			<path class="st29" d="M647.6,365.4c0.8,0.1,2,0.3,3.4,0.2c2.6-0.1,2.8-0.8,5-1c3.4-0.3,5.1,1.1,8.5,0.7c1.1-0.1,2.2-0.4,2.2-0.4
				c0.4-0.1,0.9-0.2,1.5-0.4c0.3-0.1,0.7-0.3,0.9-0.5c0.8-0.5,0.8-1.7,0-2.2c-0.3-0.2-0.6-0.4-0.9-0.6c-2-1.1-4-1.5-5.2-1.5
				c-1.1-1-2.7-2.2-4.6-2.2c-1.3,0-2.1,0.6-3.1,1c-1.6,0.6-3.9,1-7.4,0c-1.6,1.1-2.4,3-1.9,4.6C646.2,364.6,647.4,365.2,647.6,365.4
				z"/>
		</g>
		<path class="st31" d="M570.7,270.6c2.7,1.2,11.7,4.7,22.8,1.7c10.2-2.7,16-9.2,18-11.6c-0.4-1.2-5.8-16.6-6.8-26.6
			c-0.2-1.9-0.4-5.1,0.2-9.1c0.3-1.9,0.8-4,1.7-6.4c5.1-13.4,8.5-25.8,4.3-30.4c-2.5-2.8-12.4-9.3-24.2-6.2
			c-1.6,0.4-5.1,1.7-6.5,1.9c-1.6,0.4-8.7,2.8-12.1,10.6c-1.3,3-2.5,5.9-3.3,9.2c-0.3,1.3-0.9,3.9-1.3,7.5c-1,9.3,0.6,23.6,4.2,37.4
			c0.7,2.5,1.7,6.4,2.4,12C570.6,264.9,570.7,268.5,570.7,270.6z"/>
		<g>
			<path class="st32" d="M586.4,242.4c-0.1,0.8-0.2,1.5-0.6,2.2c-0.5,0.8-1.1,1.4-1.5,1.6c-0.6,0.5-1.3,0.9-1.9,1.4
				c-3.3,1.5-5.4,1.2-6.5,0.8c-6.2-2.1-7.7-13.6-8.3-18.3c-0.2-1.8-0.5-4.6-0.5-4.8c-0.1-3.1-0.3-6.3-0.4-9.4l15.1-3.2
				c-0.3,2.8,0.2,7.1,1.1,12.3c0.4,2.2,0.6,3.5,0.7,4.2c0.7,3.5,1.6,6.3,2.3,8.4C586.1,238.5,586.5,240.3,586.4,242.4z"/>
		</g>
		<g>
			<path class="st33" d="M641.1,247.3c-0.6,0.3-1.2,0.5-1.7,0.6c-3.8,0.6-6.9-3.3-7.2-3.7c-0.9-2.3-1.9-4.5-2.8-6.8
				c0.8-0.2,2-0.3,3.3-0.2c2.5,0.2,4.3,1,5.4,1.5c2.3,1.1,4.4,2.1,4.9,4.1c0.1,0.3,0.4,1.4-0.1,2.6
				C642.4,246.5,641.4,247.1,641.1,247.3z"/>
		</g>
		<g>
			<path class="st32" d="M632.4,243.9c-5.4,2.7-14.4,6.6-26.1,8.1c-2.9,0.4-29.8,3.9-33.9-5.8c-2.1-4.8,1.7-12.6,5.6-13.3
				c1.8-0.3,2.7,1.8,6.3,3.8c3.5,1.9,6.5,2.2,9.8,2.5c11.3,1.2,30.1-1.8,36.5-2.2c0.5,0,1.5-0.1,2.2,0.6
				C634.1,238.8,633.3,241.7,632.4,243.9z"/>
		</g>
		<g class="st26">
			<path class="st24" d="M582.6,223.7c-0.8,1-2.8,3.2-6.2,4.5c-4.2,1.5-7.8,0.6-9,0.2c-0.2-1.7-0.3-3.3-0.5-5.1
				c-0.2-3.1-0.4-6.2-0.5-9.1c5.1-1.1,10.3-2.2,15.4-3.2c-0.1,1.5-0.1,3,0,4.6C581.9,218.5,582.2,221.3,582.6,223.7z"/>
		</g>
		<g>
			<path class="st4" d="M574,189.8c-8.2,4.2-9.3,16.9-9.6,19.9c-0.1,0.8-0.3,4.2,0.7,8.2c0.7,2.6,1.4,3.6,1.8,4
				c1.6,2,3.8,2.4,4.7,2.6c0.7,0.1,3.6,0.6,6.7-1.1c2.9-1.6,4.4-4.3,5.1-5.8c4.5-8.6,5.5-25.2-1.5-28.6
				C578.7,187.4,575,189.3,574,189.8z"/>
		</g>
		<path class="st4" d="M604.5,191.6c-1.8-0.6-4.1-1.6-6.5-3.2c-3.2-2.1-5.3-4.5-6.7-6.2c1.8-2.3,3.6-4.6,5.4-6.9
			c3.2,2.4,6.3,4.7,9.5,7.1C605.7,185.4,605.1,188.5,604.5,191.6z"/>
		<path class="st32" d="M582.5,186c6.5,6.2,18.4,6,18.9,5c-0.2-0.2-0.5-6.4-0.6-11.4c0-2.8,0-5.2,0.2-5.9c-1.7-1.2-3.6-2.7-5.6-4.8
			c-1.6-1.7-2.8-3.3-3.7-4.7c-0.7,4.7-1.8,8.5-2.7,11.1c-1,3-1.8,4.6-2.6,5.9C585.3,183.1,583.9,184.7,582.5,186z"/>
		<path class="st24" d="M589.5,173.9c0.3,0.9,1,2.8,2.8,4.5c0.6,0.5,2.5,2.2,5.4,2.4c1.3,0.1,2.4-0.1,3.1-0.3
			c-0.1-1.5-0.1-3.1,0-4.8c0.1-0.8,0.1-1.5,0.2-2.2c-1.7-1.2-3.6-2.7-5.6-4.8c-1.6-1.7-2.8-3.3-3.7-4.7c-0.2,2.3-0.7,4.1-1.1,5.3
			C590,171.5,589.5,173.9,589.5,173.9z"/>
		<path class="st22" d="M598.7,178c0.6,0.1,1.1,0.3,1.8,0.2c1.8-0.3,2.9-1.8,3.3-2.4c1.1-1.5,0.9-2.4,1.6-6.2
			c0.8-4.3,1.6-6.3,2.2-11.1c0,0,0-0.1,0-0.1c0.5-4.2-2.4-7.9-6.3-8.3l-4.4-0.5c-0.3,0-0.5,0-0.8,0c-0.6,0.1-1.4,0.3-2.1,0.8
			c-2.6,1.7-2.9,5.2-3,5.9c0,0.1,0,0.2,0,0.2l-0.9,8.6c-0.7,4,0.3,7.9,2.8,10.2C594.8,177,597.3,177.6,598.7,178z"/>
		<path class="st22" d="M594.9,154.6l4.2,0.5c0.4,0,0.7,0.1,1.1,0.2c1.1,0.4,3.8,1,6.5-0.5c0.4-0.2,1.6-0.9,2.4-2.2
			c1.5-2.3,1.2-5.5,0.2-7.3c-2.8-5-14-5.9-17.8-0.6c-1.9,2.6-1.4,6-1.1,7.4c-0.4,1.8,0.7,3.4,2,3.7
			C593.3,155.9,594.2,155.4,594.9,154.6z"/>
		<path class="st32" d="M600.5,170.4l0.8,0.1c0.8,0.1,2.6,0.3,3.9-0.8c1-0.9,1.3-2.1,1.7-4.2c0.3-1.8,0.1-1.9,0.3-3.6
			c0.4-2.6,1-3.5,1.5-6.8c0.2-1.4,0.2-2.4-0.3-2.8c-0.4-0.3-0.9,0-2-0.1c-0.8,0-1.1-0.3-2.5-0.7c-1.5-0.4-2.9-0.9-5-1.3
			c-1.2-0.3-1.9-0.3-2.2-0.3c-1.9,0.1-3.3,2.5-3.7,5.9c0,0.2-0.1,0.4-0.1,0.6l-0.9,2.9c-0.1,0.2-0.1,0.5-0.1,0.8
			C591.5,165.3,595.3,169.9,600.5,170.4z"/>
		<path class="st32" d="M590.9,157.7c-0.1,1.1,0.4,2,1.1,2.1c0.7,0.1,1.4-0.8,1.5-1.8c0.1-1.1-0.4-2-1.1-2.1
			C591.6,155.8,591,156.6,590.9,157.7z"/>
		<path class="st4" d="M593.9,193.3c-1.8-0.6-4.1-1.6-6.5-3.2c-3.2-2.1-5.3-4.5-6.7-6.2c1.8-2.3,3.6-4.6,5.4-6.9
			c3.2,2.4,6.3,4.7,9.5,7.1C595.1,187.1,594.5,190.2,593.9,193.3z"/>
		<g>
			<g>
				<path class="st11" d="M681.1,236.6l-4,37c-0.1,0.7-0.7,1.2-1.5,1.2l-22.5,0.2l-4.5,0l-18.5,0.2l-1.9,0l-8.8,0.1
					c-0.9,0-1.6-0.7-1.5-1.5l4-37c0.1-0.7,0.7-1.2,1.5-1.2l23.1-0.2l1.9,0l18.5-0.2l4.5,0l8.2-0.1
					C680.5,235.2,681.2,235.9,681.1,236.6z"/>
			</g>
			<g class="st20">
				<path class="st34" d="M623.5,235.9l11.8-0.1l-15.5,22.5l2.3-21.1C622.1,236.4,622.7,235.9,623.5,235.9z"/>
			</g>
			<g class="st20">
				<path class="st34" d="M680.8,236.8l-4,37c-0.1,0.7-0.7,1.2-1.5,1.2l-22.5,0.2l-4.5,0l-6.1,0.1l27.5-39.9l1.3,0l8.2-0.1
					C680.2,235.4,680.9,236,680.8,236.8z"/>
			</g>
			<g>
				<path class="st35" d="M656.5,255.7c0,3.4-2.8,6.2-6.2,6.2c-3.4,0-6.2-2.8-6.2-6.2c0-3.4,2.8-6.2,6.2-6.2
					C653.7,249.5,656.5,252.3,656.5,255.7z"/>
			</g>
		</g>
		<polygon class="st19" points="647,371.7 612.8,258.8 618.2,257 654.1,369.8 		"/>
		<path class="st36" d="M583.3,384.7c-27.7,0-50.3-22.6-50.3-50.3c0-27.7,22.6-50.3,50.3-50.3c27.7,0,50.3,22.6,50.3,50.3
			C633.6,362.2,611.1,384.7,583.3,384.7z M583.3,299.6c-19.2,0-34.9,15.6-34.9,34.9c0,19.2,15.6,34.9,34.9,34.9
			c19.2,0,34.9-15.6,34.9-34.9C618.2,315.2,602.6,299.6,583.3,299.6z"/>
		<rect x="563.1" y="257" class="st19" width="56" height="7.8"/>
	</g>
	<path class="st10" d="M1148.4,290.3c-0.4,1.7-1.1,3.6-2.6,4.1c-1,0.3-7-1.8-7.8-2.6c-3.1-3.3-10.9-39-9.2-43.9
		c1.2-3.3,21.6,1.3,22.4,7c0.9,7.3,0.6,15.2-0.4,22.4C1150.3,281.7,1149.5,286.1,1148.4,290.3z"/>
	<path class="st12" d="M1159.2,324.7c-1.4,0.8-3.1,1.2-4.7,1.2c-0.5-1.8-1.1-3.7-1.6-5.5c-0.1-0.2-0.1-0.5-0.1-0.7
		c0.1-0.3,0.4-0.6,0.7-0.8c1.2-0.7,3-1.4,3.6,0.2C1157.9,321,1158.6,322.9,1159.2,324.7z"/>
	<path class="st12" d="M1148.2,327.9c-1.6,0.2-3.3,0.1-4.9-0.4c-0.1-1.9-0.1-3.8-0.2-5.7c0-0.2,0-0.5,0.1-0.7
		c0.2-0.3,0.5-0.4,0.9-0.5c1.3-0.2,3.3-0.3,3.5,1.3C1147.8,324,1148,326,1148.2,327.9z"/>
	<path class="st10" d="M1134.8,285.6c1.4-3.4,10.7-5.7,14.1,0.2c5.2,8.9-1.5,25.6-0.7,36.4h-9.1
		C1138.7,321.1,1134,287.5,1134.8,285.6z"/>
	<path class="st37" d="M1150.1,285.1c-0.9,7-17,2.7-16-3.5c1.9-12.2,4.4-32.8,6.3-34.6c5.2-5,22.9-2.2,22.9,6
		C1163.3,263,1151.6,273.8,1150.1,285.1z"/>
	<path class="st37" d="M1134.1,283.2c-0.3-3.6,10.6-5.5,15.4-0.6c7.7,7.9,7.6,22.8,11.6,36.1l-8.8,1.8
		C1150.6,317.6,1134.7,290.1,1134.1,283.2z"/>
	<path class="st4" d="M1161.5,253c-0.1-6.6,5.1-16.1-0.9-25.6c-3.3-5.3,6.8-10.4,5.7-16.7c-2.5-3.1-3.1-12.4-21-11.3
		c-14.6,0.9-12.3,5.3-13.6,7.2c-1.4,2.1-2.1,5-1.7,7.4c0.7,5.1-8.1,21.9-1.3,39.1c0,0,6.7,0.4,11.8-1.3
		C1145.7,250,1159,249.8,1161.5,253"/>
	<path class="st12" d="M1169.8,221.2c-1.7-6-5.4-11.4-10.5-15.6c-0.9-0.7-2.1-1.5-3.3-1.1c-0.6,0.2-1,0.8-1.2,1.4
		c-0.2,0.6-0.2,1.2-0.1,1.8c0.3,7,1.7,14,3.1,20.9c0.4,2.1,0.9,4.3,1.9,6.2c1,2,2.7,3.7,4.9,4.5c1.2,0.4,3.1,0.6,4.2-0.1
		c0.9-0.6,1-2.2,1.2-3.1c0.8-3.2,1-6.4,0.7-9.6C1170.7,224.8,1170.3,223,1169.8,221.2z"/>
	<path class="st38" d="M1169,222.1c0,0,0,0.1,0,0.1C1169,222.2,1169,222.1,1169,222.1z"/>
	<path class="st4" d="M1153.5,206.1c0.1-1,2.9-4.3,3.9-4.7c1.1-0.5,3,0.4,3.9,1.1c5.4,4.3,8.4,10.2,9.8,16.8l-16,0.7
		C1154,214.8,1153.2,211.4,1153.5,206.1z"/>
	<g>
		<path class="st39" d="M1141.2,192.1c0.8-3.5,7.6-4.9,9.1-4c1,6.6,0.8,9.5,3.4,13c-3.2,2.1-12.1,1.9-13.3,0.2
			C1140.3,200.7,1140.8,193.9,1141.2,192.1z"/>
		<path class="st12" d="M1147.1,183.2c-2.5-3.2-7.6-2.6-9.5,1.2c-1.7,3.5,0.1,11,1.5,12.6c2.5,2.7,8-0.3,8.8-2.4
			C1149,191.6,1149.2,185.8,1147.1,183.2z"/>
		<path class="st40" d="M1149.1,184.6c0.3-0.1,0.6,0,0.9,0.2c0.2,0.2,0.4,0.5,0.6,0.7c0.5,0.9,1.1,1.8,1.4,2.8
			c0.3,1,0.5,2.1,0.2,3.1c-0.2,0.7-0.6,1.3-0.5,2c0,0.6,0.4,1.3,0.1,1.8c-0.2,0.4-0.8,0.5-1.2,0.3c-0.4-0.2-0.7-0.6-0.9-1
			c-0.2-0.4-0.2-0.9-0.4-1.3c-0.4-1.5-1.1-2.8-1.5-4.3c-0.4-1.5-0.3-3.2,0.7-4.3L1149.1,184.6z"/>
		<path class="st40" d="M1136.4,180.4c-0.1,0.7-0.3,0.8-0.9,1c-0.4,0.3-0.9,0.6-1.1,1c-0.3,0.4-0.3,1.1,0,1.5
			c0.3,0.3,0.7,0.4,1.1,0.3c0.4-0.1,1,0,1.4-0.2c-0.2,0.2-0.4,0.4-0.5,0.7c-0.1,0.3,0,0.7,0.3,0.8c0.2,0.1,0.5,0,0.7-0.1
			c1.2-0.4,2.7-1,3.9-1.4c-0.1,0.3-0.3,0.6-0.3,0.9c0,0.3,0,0.6,0.3,0.8c0.4,0.3,1.1,0.1,1.5-0.3c0.4-0.3,0.9-0.8,1.4-0.7
			c0.6,0.1,0.9,0.8,1.1,1.3c0,0.1,0.1,0.2,0.1,0.3c0.4,1.1,0.8,2.1,1.2,3.2c0.1,0.3,0.2,0.7,0.5,0.9c0.2,0.3,0.5,0.5,0.9,0.4
			c0.6,0,7.4-4.3,2.3-11.5c-0.7-0.9-2.5-1.9-3.7-1.9c-1.2,0-2.3,0.2-3.5,0.1c-0.9-0.1-3.7-0.3-3.7,0.6
			C1139.1,179.9,1137.2,177.9,1136.4,180.4z"/>
		<path class="st12" d="M1151.4,189.1c0.1,0.9-0.2,1.9-0.8,2.6c-1.7,2-3.3-0.8-2.9-2.5C1148.2,187.1,1151.2,186.6,1151.4,189.1z"/>
	</g>
	<path class="st4" d="M1133.1,330.7c-0.1-0.8,0.7-1.4,1.5-1.6c0.8-0.2,1.6,0,2.4-0.1c2.3,0,4.5-1.4,5.5-3.4c0.1-0.3,0.3-0.6,0.6-0.7
		c0.4-0.2,0.8-0.1,1.2,0.2c0.3,0.3,0.5,0.6,0.8,0.9c0.5,0.5,1.3,0.8,2,0.8c0.6,0,1.3-0.5,1.9-0.2c0.5,0.3,0.7,1,0.8,1.5
		c0.2,0.9,0.4,1.8,0.7,2.7c0,0.2,0.1,0.4,0.1,0.6h-4.3c-0.2-0.3-0.4-1.1-0.5-1.4c0,0.3-0.2,1.2-0.4,1.4h-11.9
		C1133.3,331.3,1133.1,331,1133.1,330.7z"/>
	<path class="st4" d="M1153.6,329.7c-0.3-0.7-0.2-1.5,0.1-1.7c0.3-0.3,0.3-1.7,0.3-3.8c0-0.9,1.6-1.8,3-0.6c0.4,0.4,0.8,0.6,1.1,0.5
		c0.3-0.1,0.4-0.6,0.7-0.4c0.3,0.2,0.6,0.9,0.8,1.3c0.4,0.8,0.8,1.6,1.2,2.4c0.1,0.2,0.2,0.4,0.2,0.6l-7.1,2.5
		C1153.8,330.2,1153.7,329.9,1153.6,329.7z"/>
	<path class="st12" d="M1155.4,256.2c0.4,1.1,1.8,1.5,3,1.2c1.2-0.3,10.4-15.8,11.5-19.8c0.3-1.2,0.6-2.6-0.2-3.5
		c-0.7-0.8-2-0.9-3.2-0.7c-2,0.2-4.3,0.8-6,2C1156.9,238,1154.6,253.8,1155.4,256.2z"/>
	<g>
		<path class="st5" d="M170,443.3h538.7c-12.6-1.4-60.6-54.3-124.8-62.3c-15.6-1.9-29.3-1.1-42.8-4.5c-12.2-3.1-20.8-7.1-28.4-10.6
			c-18.2-8.5-32.6-15.2-83.5-2.5c-36.7,9.1-47.5,2.9-57.9-3.2c-7.8-4.5-15-8.1-32.8-6.4C257.2,361.6,186.9,434.8,170,443.3z"/>
	</g>
	<g>
		<path class="st41" d="M885.5,310.4c4.8,2.4,12.4,6.1,12.5,6.2l2-3.1c0,0-1.9-1.4-4.3-3.1c-3.5-2.5-8.3-5.8-10.2-6.8
			c-1-0.5-2.3-2.4-3.6-4.6c-1.5-2.5-3.4-4.9-4.3-7l-5,2.3c1,2.2,2.5,5.3,4,7.9c1.7,2.9,3.7,5.6,5.8,6.7
			C882.9,309.2,884.1,309.7,885.5,310.4z"/>
		<path class="st41" d="M863.4,310.4l0,0.3c-0.2,1.9,0.5,5.8,1.3,9.7c0.4,1.9,0.7,3.9,1,5.6l4.3-0.7c-0.5-3.5-1.1-10.8-0.7-14
			c0-0.3,0.1-0.6,0.1-0.9c0.6-4.1,2.1-8.4,3.3-11.8c0.4-1,0.7-1.9,0.9-2.5l-5.7-1.7c-0.3,0.9-0.5,1.6-0.8,2.4
			C865.8,300.6,864,305.6,863.4,310.4z"/>
		<path class="st42" d="M869.9,324.5c0.6,1.2,0.4,2,0.5,3.3c-3.8,0.1-7.1,0.3-10.9,0.4c-0.4-1.3,4.4-1.6,6-3.6L869.9,324.5z"/>
		<path class="st42" d="M899.7,313.4c1.3,0.2,1.9,0.8,3,1.5c-2,3.2-3.7,5.8-5.7,9c-1.3-0.4,1.3-4.9,0.6-7.4L899.7,313.4z"/>
		<path class="st41" d="M869,267.9c-1.7,0.7-5.5,2.3-10.1,2c-4.6-0.4-10-2.6-14.5-9.6l3.8-2.5c3.6,5.5,7.6,7.3,11,7.5
			c3.5,0.3,6.5-1,7.9-1.6L869,267.9z"/>
		<path class="st43" d="M874.6,247.4c4.4,0,9.8,0.4,11,4c1.2,3.6,3.2,3.6,4.7,4.1c1.5,0.5,4,2.1,4.4,6.1c0.4,4.1,2.5,4,4.1,4.8
			c1.7,0.7,7.1,3.7,3,10.6c-4,6.9-13.7,6.7-16.2,5.9c-10.6-3.5-9.9-20.7-14.8-31L874.6,247.4z"/>
		<path class="st9" d="M873.9,264.5c-0.4-2.6-2.3-2.5-11.1,0.1c-0.4,3.3,1.2,5.8,1.2,5.8S874.7,269.7,873.9,264.5z"/>
		<path class="st44" d="M885.2,298.7c-1-6.8-1.8-27.4-3.4-35c-4.9-2.1-13.3-2.6-13.9,1.2c-1.2,7.3-3.4,33.4-4,35.5
			C868.7,302.3,883.1,301.9,885.2,298.7z"/>
		<path class="st41" d="M872.3,256.6l5.7,1.6c0,0.1,0.1,0.3,0.1,0.4l-0.1,4.8c-0.5,2.3-2,3.7-3.7,3.2c-1.7-0.5-2.1-2.6-2.2-4.8
			l0.1-4.8C872.2,256.9,872.3,256.7,872.3,256.6z"/>
		<path class="st45" d="M872.2,260.6l5.1,4.7c0.3-0.5,0.6-1.2,0.8-1.9l0.1-4.8c0-0.1,0-0.3-0.1-0.4l-0.5-0.1l-5.4,0.7L872.2,260.6z"
			/>
		<g>
			<path class="st41" d="M876.4,248.7c-1.2-0.3-4.9-1.1-6.2,3.5c-1.2,4.6-0.7,6.5-0.3,7.4c1.6,3.3,4.1,3.9,7.1,1.8
				c0.8-0.5,2.1-2,3.2-6.6C881.3,250.1,877.6,249,876.4,248.7z"/>
			<path class="st43" d="M877.8,251.7c-0.2,2,1.7,2.1,1.9,4.6c0.1,1.3-0.3,1.4-1.2,2.9c1.4-0.3,2.9,0.1,3.9-1.7
				c1.7-3,0.9-6.6-0.6-6.6c0.1-1.9-1.5-3.1-3.8-3.6c-1.3-0.3-4.5,0.4-6,0.1c-2.3-0.6-3.4,0.7-2.9,2.2c0.2,0.6,1.4,1.1,2,1
				c0.8-0.1,1.7,1.3,3.2,1.6C875.9,252.4,876.7,251.7,877.8,251.7z"/>
			<path class="st41" d="M878.9,256.9c0.2-0.3,0.4-0.5,0.8-0.4c0.4,0,1,0.4,0.8,1.5c-0.3,1.1-1.4,1.8-1.9,1.5
				C878,259.1,878.8,257.1,878.9,256.9z"/>
		</g>
		<path class="st41" d="M880,267.8c1.6,1.6,2,1.6,3.7,3.9c3.9,5.4,5.9,11.6,7.5,18.1l3.7,0.3c-0.1-1-0.3-2-0.6-3
			c-1.7-6.9-2.7-11.7-7.2-17.9c-1.8-2.5-2.5-2.7-4.2-4.5L880,267.8z"/>
		<g>
			<path class="st41" d="M892.2,295.1l0.3-1.1c0.1-0.2-0.1-0.5-0.3-0.5l0,0c-0.2-0.1-0.5,0.1-0.5,0.3l-0.3,1.1
				c-0.1,0.2,0.1,0.5,0.3,0.5l0,0C891.9,295.5,892.1,295.4,892.2,295.1z"/>
			<path class="st41" d="M892.5,296l0.9-1.8c0.2-0.5-0.5-0.9-0.8-0.4l-0.9,1.8c-0.1,0.2,0,0.5,0.2,0.6l0,0
				C892.2,296.3,892.4,296.2,892.5,296z"/>
			<path class="st41" d="M893.2,296.1l1.2-2.2c0.1-0.2,0-0.5-0.2-0.6l0,0c-0.2-0.1-0.5,0-0.6,0.2l-1.2,2.2c-0.1,0.2,0,0.5,0.2,0.6
				l0,0C892.8,296.4,893.1,296.3,893.2,296.1z"/>
			<path class="st41" d="M894.2,295.7l0.8-1.4c0.1-0.2,0-0.5-0.2-0.6l0,0c-0.2-0.1-0.5,0-0.6,0.2l-0.8,1.4c-0.1,0.2,0,0.4,0.2,0.6
				l0,0C893.8,296.1,894.1,296,894.2,295.7z"/>
			<path class="st41" d="M895.1,294l0-1.6c0-0.2-0.2-0.4-0.4-0.4l0,0c-0.2,0-0.4,0.2-0.4,0.4l0,1.6c0,0.2,0.2,0.4,0.4,0.4h0
				C894.9,294.5,895.1,294.2,895.1,294z"/>
			<path class="st41" d="M894.4,293.9l-0.2-2c0-0.2-0.3-0.4-0.5-0.3l0,0c-0.2,0-0.4,0.3-0.3,0.5l0.2,1.7
				C893.7,294.3,894.5,294.6,894.4,293.9z"/>
			<path class="st41" d="M893.5,293.7l0.1-1.6c0-0.2-0.2-0.4-0.4-0.4l0,0c-0.2,0-0.4,0.2-0.4,0.4l-0.1,1.6
				C892.6,294.2,893.4,294.4,893.5,293.7z"/>
			<path class="st41" d="M892.5,293.7l0.2-1.6c0-0.2-0.1-0.5-0.4-0.5l0,0c-0.2,0-0.5,0.1-0.5,0.4l-0.2,1.6c0,0.2,0.2,0.4,0.4,0.5
				l0,0C892.3,294.1,892.5,293.9,892.5,293.7z"/>
			<path class="st41" d="M895.1,292.8c0-0.7,0.2-2.8-0.5-4c-0.7-1.2-3-1.8-3.2-0.9c-0.2,0.9-0.2,1.8-0.1,2.3
				c0.1,0.5,0.5,1.2,0.6,1.9C892.4,292,893.5,292.2,895.1,292.8z"/>
			<path class="st41" d="M890.7,291.5l0,1.7c0,0.2,0.2,0.4,0.5,0.4l0,0c0.2,0,0.4-0.2,0.4-0.5l0-1.7c0-0.2-0.2-0.4-0.5-0.4l0,0
				C890.9,291.1,890.7,291.3,890.7,291.5z"/>
			<path class="st41" d="M891,289.5l-0.2,1.7c0,0.2,0.2,0.5,0.4,0.5l0,0c0.2,0,0.5-0.2,0.5-0.4l1-1.5c0.1-0.2-1-0.5-1.2-0.7l0,0
				C891.2,289,891,289.2,891,289.5z"/>
		</g>
		<path class="st9" d="M879.7,264.1c-2.1,1.5-1.3,3.1,4.9,10c3.2-1.1,4.7-3.5,4.7-3.5S884.1,261.1,879.7,264.1z"/>
	</g>
	<path class="st42" d="M788.7,256.8c0-2.6-0.7-4.3-1.8-5.3c-1.1-1-2.5-1.3-3.9-1.3c-1.5,0-2.9,0.8-3.8,2.4h0
		c-0.8,1.3-1.2,3.2-1.2,5.7h1.5c0-2.2,0.4-3.9,1-5v0c0.6-1.1,1.5-1.6,2.5-1.6c1,0,2.1,0.2,2.9,0.9c0.8,0.7,1.3,2,1.3,4.1H788.7z"/>
	<g>
		<path class="st46" d="M844.5,260.3l0.2-1.8c0-0.4-0.2-0.7-0.6-0.7l0,0c-0.4,0-0.7,0.2-0.7,0.6l-0.2,1.8c0,0.4,0.2,0.7,0.6,0.7l0,0
			C844.2,260.9,844.5,260.6,844.5,260.3z"/>
		<path class="st46" d="M845.2,261.5l0.9-2.9c0.2-0.8-1-1.2-1.3-0.4l-0.9,2.9c-0.1,0.4,0.1,0.7,0.4,0.8l0,0
			C844.8,262,845.1,261.8,845.2,261.5z"/>
		<path class="st46" d="M846.3,261.5l1.3-3.6c0.1-0.3-0.1-0.7-0.4-0.8l0,0c-0.3-0.1-0.7,0.1-0.8,0.4l-1.3,3.6
			c-0.1,0.3,0.1,0.7,0.4,0.8l0,0C845.8,262,846.2,261.8,846.3,261.5z"/>
		<path class="st46" d="M847.7,260.7l0.9-2.4c0.1-0.3-0.1-0.7-0.4-0.8l0,0c-0.3-0.1-0.7,0.1-0.8,0.4l-0.8,2.4
			c-0.1,0.3,0.1,0.7,0.4,0.8l0,0C847.2,261.3,847.6,261.1,847.7,260.7z"/>
		<path class="st46" d="M848.6,257.9l-0.3-2.5c-0.1-0.4-0.4-0.6-0.8-0.5l0,0c-0.4,0.1-0.6,0.4-0.5,0.8l0.3,2.5
			c0.1,0.4,0.4,0.5,0.8,0.5l0,0C848.4,258.7,848.7,258.3,848.6,257.9z"/>
		<path class="st46" d="M847.6,257.9l-0.7-3c-0.1-0.3-0.5-0.5-0.8-0.4l0,0c-0.3,0.1-0.5,0.5-0.4,0.8l0.7,2.5
			C846.6,258.7,847.8,258.9,847.6,257.9z"/>
		<path class="st46" d="M846.1,257.9l-0.2-2.5c0-0.4-0.4-0.6-0.7-0.6l0,0c-0.4,0-0.6,0.4-0.6,0.7l0.2,2.5
			C844.9,258.8,846.2,258.8,846.1,257.9z"/>
		<path class="st46" d="M844.7,258l0-2.5c0-0.4-0.3-0.7-0.7-0.6v0c-0.4,0-0.7,0.3-0.6,0.7l0,2.5c0,0.4,0.3,0.6,0.7,0.6l0,0
			C844.4,258.7,844.7,258.4,844.7,258z"/>
		<path class="st46" d="M848.3,256.1c-0.2-1.1-0.4-4.3-1.8-5.9c-1.4-1.7-5-2-5.1-0.6c-0.1,1.5,0.1,2.8,0.4,3.5
			c0.3,0.7,1,1.7,1.4,2.7C844.2,255.5,845.8,255.5,848.3,256.1z"/>
		<path class="st46" d="M841.5,255.2l0.4,2.5c0.1,0.4,0.4,0.6,0.8,0.5l0,0c0.4-0.1,0.6-0.4,0.5-0.8l-0.4-2.5
			c-0.1-0.4-0.4-0.5-0.8-0.5l0,0C841.6,254.4,841.4,254.9,841.5,255.2z"/>
		<path class="st46" d="M841.4,252l0.1,2.6c0,0.4,0.4,0.7,0.7,0.6l0,0c0.4,0,0.7-0.4,0.6-0.7l1.1-2.4c0.2-0.3-1.6-0.5-1.9-0.7l0,0
			C841.6,251.3,841.4,251.7,841.4,252z"/>
	</g>
	<g>
		<polygon class="st8" points="833.1,318.6 840.9,316.5 838.5,309.5 832,311.4 		"/>
		<path class="st9" d="M840.9,316.5c1.3,1.5,1.5,2.8,2,4.6c-5.5,1.4-12.4,3.3-17.8,4.7c-2.4-2.9,5.7-5.2,8.1-7.3L840.9,316.5z"/>
	</g>
	<path class="st37" d="M834.8,245.3c-0.3,1.2,0.9,6,0.4,11.7c-0.6,7.8-0.8,20.3-0.8,23.6c0,1.6,1,6.2,2.4,11.5
		c2.5,10,5.7,17.8,6.7,20.9l-15.1,3.9c-1.1-3.3-4.4-11.8-7-21.8c-1.6-6.3-2.8-12-2.8-15.1c0-3.9,0.2-16.9,0.8-24.7
		c0.5-6.4,1.2-12.2,1.8-14.5L834.8,245.3z"/>
	<path class="st47" d="M811,212.2c0.3,6.5-0.3,11.9-3.1,19.2c-2.7,7.1-9.2,14.3-16.5,22.9l-4.7-6.2c6.7-7.8,11.3-13.2,13.7-19.5
		c2.3-6.2,3.6-11.9,3.4-17.4L811,212.2z"/>
	<path class="st48" d="M824.8,204.6c5.2,4,10.1,9,13.9,15.8c3.7,6.7,7.3,18.1,9.1,29.3l-7.9,1.3c-1.6-10.1-4.9-20.7-8.2-26.6
		c-3.2-5.7-7.1-9.9-11.5-13.3L824.8,204.6z"/>
	<path class="st48" d="M807.9,203.6c-5.7,5.9-4.4,8.5-3.3,17.4c1.1,9-0.7,23.2,0.4,39.5l0.5-0.2c2.5,0.1,24.5,1.3,30.6,0.5
		c0.7-13-2.7-36.6-6.3-47.3c-2.4-7.4-4.6-10.6-12.5-11C812.7,203.4,813.1,201.6,807.9,203.6z"/>
	<g>
		<path class="st42" d="M813.2,193.5c6.1,1.2,10.9,3.3,10.6,4.7c-0.3,1.4-5.5,1.6-11.6,0.4c-6.1-1.2-10.9-3.3-10.6-4.7
			C801.9,192.5,807,192.3,813.2,193.5z"/>
		<path class="st46" d="M812.2,187.3c-1.8,0-7.4,0.2-7.5,7.2c-0.1,7,1.3,9.5,2.2,10.6c3.5,4.1,7.2,4.1,10.7,0
			c0.9-1,2.3-3.6,2.2-10.6C819.7,187.5,814.1,187.3,812.2,187.3z"/>
		<path class="st42" d="M816.7,196.7c0,0.1,0,1-0.3,1.8c-0.1,0.4-0.3,0.8-0.7,1.1l0,0c-0.4,0.3-1.2,0.4-1.9,0.4
			c-0.8,0-1.5-0.2-1.8-0.5c-0.2-0.2-0.4-0.7-0.6-1.2c-0.2-0.6-0.3-1.2-0.3-1.4l0,0l0,0l0,0l0,0l0,0c0.1-0.2,0.8-0.5,1.6-0.6
			c0.8-0.1,1.8-0.1,2.6,0c0.4,0,0.7,0.1,1,0.3l0.2,0.1V196.7L816.7,196.7z M815.9,198.3c0.2-0.5,0.2-1.1,0.2-1.4
			c-0.2-0.1-0.4-0.1-0.7-0.1c-0.8-0.1-1.7-0.1-2.5,0c-0.6,0.1-1.1,0.2-1.2,0.2c0,0.2,0.1,0.6,0.3,1.1c0.1,0.4,0.3,0.8,0.5,1
			c0.1,0.2,0.7,0.3,1.4,0.3c0.6,0,1.2-0.1,1.5-0.3h0C815.6,198.9,815.8,198.6,815.9,198.3z"/>
		<path class="st42" d="M804.6,196.9c0,0.3,0.1,0.9,0.2,1.4c0.1,0.3,0.2,0.6,0.4,0.8h0c0.3,0.2,0.9,0.3,1.5,0.3
			c0.6,0,1.2-0.1,1.4-0.3c0.1-0.2,0.3-0.6,0.5-1c0.2-0.5,0.3-0.9,0.3-1.1c-0.1-0.1-0.6-0.1-1.2-0.2c-0.8-0.1-1.7-0.1-2.5,0
			C805,196.8,804.8,196.9,804.6,196.9L804.6,196.9z M804.3,198.5c-0.2-0.8-0.3-1.6-0.3-1.8v-0.2l0.2-0.1c0.3-0.1,0.6-0.2,1-0.3
			c0.8-0.1,1.8-0.1,2.6,0c0.9,0.1,1.6,0.3,1.6,0.6l0,0l0,0l0,0l0,0l0,0c0,0.2-0.1,0.8-0.3,1.4c-0.2,0.5-0.4,0.9-0.6,1.2
			c-0.3,0.3-1,0.5-1.8,0.5c-0.7,0-1.5-0.1-1.9-0.4l0,0C804.6,199.3,804.4,198.9,804.3,198.5z"/>
		<path class="st42" d="M811.4,197.2c-0.3-0.1-0.6-0.2-1-0.2c-0.3,0-0.7,0-1.1,0.2l-0.2-0.5c0.5-0.2,0.9-0.2,1.3-0.2
			c0.4,0,0.8,0.1,1.2,0.2L811.4,197.2z"/>
		<path class="st9" d="M816.1,193.9c0.8,1,1.7,2.2,1.6,4.4c-0.2,2.2-1.7,4-3,3.8c-1.3-0.3-1.5-1.2-4-1.3c-2.4-0.1-2.6,0.1-3.6,0.8
			c-1,0.7-1.7,0.1-1.7,0.1s-1.9,9.4,5.4,9.4c7.3,0,7.5-5.6,7.9-6.9c0.5-1.3,0.3-3.4,0.3-3.9c0-0.5,1.1-3.6,1.1-3.6v-2L816.1,193.9z"
			/>
		<path class="st46" d="M818.7,198c0.2-0.5,0.4-0.8,1-0.9c0.6-0.1,1.6,0.2,1.6,1.8c0,1.6-1.4,3-2.2,2.8
			C818.2,201.6,818.6,198.5,818.7,198z"/>
		<path class="st9" d="M811.3,193.6c-0.6,1.1-4.2,1.7-5.3,1.6c-1.1-0.1-1.7,0.1-2.4-0.4c-0.7-0.5-0.1-2.1,0.3-2.4
			C804.4,192.3,811.3,193.6,811.3,193.6z"/>
		<g>
			<path class="st37" d="M823.9,198c-3.2-1.4-11-2.8-15-3.5c-4-0.7-5.7-1-7.3-0.7c0.4-1.9,10.3-7,12.8-6.5
				C816.9,187.7,824.2,196,823.9,198z"/>
			<path class="st37" d="M804.9,191.6l7.4,1.4l1.6,0.3l7.4,1.4l-0.6-7l0,0c0.1-0.6-2.6-1.8-6.1-2.5c-3.5-0.7-6.5-0.5-6.6,0.1
				L804.9,191.6z"/>
			<path class="st49" d="M805.4,190.5L805.4,190.5c3.8-0.5,12.5,0.9,15.8,2.8l-0.2-3c-3.7-1.3-10.2-2.5-14.2-2.5L805.4,190.5z"/>
		</g>
	</g>
	<polygon class="st42" points="787.2,256.8 788.9,323.9 790.4,323.8 788.7,256.7 	"/>
	<g>
		<path class="st46" d="M779.8,255.1l1.4-1.8c0.2-0.3,0.6-0.3,0.9-0.1l0,0c0.3,0.2,0.3,0.6,0.1,0.9l-1.4,1.8
			c-0.2,0.3-0.6,0.2-0.9,0.1l0,0C779.6,255.8,779.6,255.3,779.8,255.1z"/>
		<path class="st46" d="M777.9,253.3l2.5-1.7c0.3-0.2,0.7-0.1,0.9,0.2l0,0c0.2,0.3,0.1,0.7-0.2,0.9l-2.5,1.7
			c-0.3,0.2-0.7,0.1-0.9-0.2l0,0C777.5,254,777.6,253.5,777.9,253.3z"/>
		<path class="st46" d="M777.6,252.1l2.8-2.2c0.3-0.2,0.7-0.1,0.9,0.1l0,0c0.2,0.3,0.1,0.7-0.1,0.9l-2.8,2.2
			c-0.3,0.2-0.7,0.1-0.9-0.1l0,0C777.3,252.7,777.3,252.3,777.6,252.1z"/>
		<path class="st46" d="M778.2,250.5l1.9-1.5c0.3-0.2,0.7-0.1,0.9,0.1l0,0c0.2,0.3,0.1,0.7-0.1,0.9l-1.9,1.4
			c-0.3,0.2-0.6,0.1-0.9-0.1l0,0C777.8,251.1,777.9,250.7,778.2,250.5z"/>
		<path class="st46" d="M780.1,249l2.3-0.7c0.3-0.1,0.7,0.1,0.8,0.4l0,0c0.1,0.3-0.1,0.7-0.4,0.8l-2.3,0.7c-0.3,0.1-0.6-0.1-0.8-0.4
			l0,0C779.6,249.5,779.8,249.1,780.1,249z"/>
		<path class="st46" d="M780.4,249.9l2.3-0.4c0.3-0.1,0.7,0.2,0.7,0.5l0,0c0.1,0.3-0.2,0.7-0.5,0.7l-2.3,0.4
			c-0.3,0.1-0.6-0.2-0.7-0.5h0C779.7,250.3,780,249.9,780.4,249.9z"/>
		<path class="st46" d="M780.8,251.4l2.4-0.8c0.4-0.1,0.7,0.1,0.9,0.4l0,0c0.1,0.4-0.1,0.7-0.4,0.9l-2.4,0.8
			c-0.4,0.1-0.7-0.1-0.9-0.4v0C780.2,251.9,780.4,251.5,780.8,251.4z"/>
		<path class="st46" d="M781.7,252.8l2.7-1.2c0.4-0.1,0.8,0,0.9,0.4l0,0c0.1,0.4,0,0.8-0.4,0.9l-2.7,1.2c-0.3,0.2-0.5-0.2-0.9-0.4h0
			C780.9,253.6,781.3,253,781.7,252.8z"/>
		<path class="st46" d="M782,248.3c1-0.2,3.8-0.2,5.7,0.5c1.9,0.7,3.3,3.8,2,4.4c-1.3,0.6-2.6,0.7-3.2,0.6c-0.7-0.1-1.8-0.4-2.8-0.5
			C783.6,252.5,783.3,250.4,782,248.3z"/>
		<path class="st46" d="M785.3,255.5l-2.3,0.6c-0.3,0.1-0.7-0.1-0.8-0.5h0c-0.1-0.3,0.1-0.7,0.5-0.8l2.3-0.6
			c0.3-0.1,0.6,0.1,0.8,0.5l0,0C785.9,255,785.6,255.4,785.3,255.5z"/>
		<path class="st46" d="M787.9,254l-2,1.2c-0.3,0.2-0.7,0.1-0.9-0.2h0c-0.2-0.3-0.1-0.7,0.2-0.9l1.3-2.1c0.2-0.3,1.2,1,1.6,1.1l0,0
			C788.3,253.4,788.2,253.8,787.9,254z"/>
	</g>
	<path class="st4" d="M1137.3,201.6c0,0-12,0.5-13.2,16l9,3.7L1137.3,201.6z"/>
	<path class="st50" d="M1152.3,251.6c0,0,4,3.3,8.9,2.6c0,0,1.3,7.8-4.4,10.9C1153.5,266.9,1152.3,251.6,1152.3,251.6z"/>
	<g>
		<path class="st51" d="M1167.8,221.7c0,0-2.3,0.3-1.4,4.2c0.9,3.8,6,3,6,3L1167.8,221.7z"/>
		<g>
			<path class="st51" d="M1176.9,225.4c-0.2-0.8-0.4-1.6-0.6-2.4l-7.4,2.4c0.1,0.4,0.2,0.7,0.4,1.1c1.3,3.7,2.6,7.5,3.8,11.2
				c0.5,1.4,0.7,3.1,2.2,3.9c1,0.5,2.4,0.5,3.3-0.3c0.8-0.7,1.1-1.8,1.1-2.8c0-1-0.2-2.1-0.4-3.1
				C1178.5,232,1177.7,228.7,1176.9,225.4z"/>
			<path class="st42" d="M1184.6,289.9c0.7-4,1.4-8.1,2.1-12.1c0.8-4.3,1.5-8.7,1.1-13.2c-0.4-4.5-0.9-10.4-4.2-13.2
				c-4.2-3.6-10.8-4.9-12.1,1.1c-4.7,21.3,6.7,55.4,9,63.1c0.6,2.1,1.3,4.3,2,6.4h5.9C1187.5,310.1,1187.5,296.3,1184.6,289.9z"/>
			<path class="st51" d="M1188.4,322.1h-5.9c0.8,2.5,1.7,4.9,2.6,7.4c0.3,0.9,0.8,1.8,1.6,2.1c1.1,0.3,2.6-0.7,2.4-1.8
				C1188.9,327.3,1188.6,324.7,1188.4,322.1z"/>
			<path class="st52" d="M1188.6,295c0.7,1.9,1.9,4.1,3.7,4.2c1.1,0,2.2-0.8,2.8-1.8c0.6-1.1,1-2.3,1.3-3.5c1.3-5.3,2.6-10.7,4-16
				c1.1-4.3,2.2-8.7,2.1-13.2c-0.1-4.5-1.4-9.2-4.5-12c-3.9-3.6-11-3.2-12.4,3c-1.8,8.1-1.8,17.1-0.5,25.4
				C1185.8,285.8,1187,290.5,1188.6,295z"/>
			<path class="st52" d="M1196.4,289.9c-5.4-3.3-10.5,2.4-6.5,7.7c4.8,6.3,10.5,12.1,16.2,17.6c1.5,1.5,3,2.9,4.6,4.3l4.5-4
				C1208.6,305.3,1202,293.3,1196.4,289.9z"/>
			<path class="st51" d="M1215.2,315.4l-4.5,4c2,1.8,3.9,3.6,6,5.3c0.7,0.6,1.5,1.2,2.4,0.9c1.1-0.3,1.9-2,1.2-2.9
				C1218.6,320.5,1216.9,318,1215.2,315.4z"/>
			<path class="st42" d="M1224.6,324c-1.2-1.1-3.7-2.9-5.3-2.5c0.3,0.5,0.3,1.5,0,1.9c-0.2,0.3-2.4,1.3-2.5,1.7
				c-0.5,1.5,6.2,2.9,2.6,7.2c-0.3,0.4-1.6,0.6-1.8,1.1c-0.2,0.5-0.1,1.1,0.3,1.5c0,0,0.1,0.1,0.1,0.1c4.6,0,5.8-2.5,7.4-5
				c-0.2-0.6-0.5-1.1-2.1-4.8c1.4,0.6,2.7,1.5,3.9,2.5l0.6-0.8C1226.7,325.8,1225.6,324.9,1224.6,324z"/>
			<path class="st52" d="M1184.3,265.2c3-0.1,25.2,1.8,12.9-17.6c-1.7-2.7-6.1-3-9.2-3.4c-4.3-0.5-12.7-0.5-14.8,3.4
				C1166.7,259.8,1180.9,265.3,1184.3,265.2z"/>
			<path class="st53" d="M1180.8,222.1c0.9-3.2,1.6-6.8,0.6-10c-0.3-1-0.4-1.2-1.3-0.7c-0.7,0.4-1.4,1.1-1.9,1.7
				c-1.1,1.2-2.1,2.5-3,4c-0.9,1.5-1.6,3-2.3,4.6l6.9,3.5C1180.1,224.2,1180.5,223.2,1180.8,222.1z"/>
			<path class="st50" d="M1191.1,238.2c-2-7.5,5.1-13.8,3.2-21.4c-1.3-5.1-7-9.2-12.2-9.1c-5.2,0.1-7.7,3.5-8.8,8.4
				c-0.5,2.3-2,5.1-1.3,7.5c0.5,1.7,1.2,3.3,1.8,5c1.1,3.5,1.3,7,1,10.4c-0.3,3-1.3,5.8-1.7,8.7h24
				C1196.3,246.4,1191.6,240.3,1191.1,238.2z"/>
			<g>
				<path class="st11" d="M1174.7,227.6h-5c-0.3,0-0.6-0.2-0.7-0.5l-3.1-10.7c-0.1-0.3,0.1-0.5,0.4-0.5h5c0.3,0,0.6,0.2,0.7,0.5
					l3.1,10.7C1175.2,227.4,1175,227.6,1174.7,227.6z"/>
				<path class="st54" d="M1175.1,227.1l-3.1-10.7c-0.1-0.3-0.4-0.5-0.7-0.5h-0.5c0.3,0,0.6,0.2,0.7,0.5l3.1,10.7
					c0.1,0.3-0.1,0.5-0.4,0.5h0.5C1175,227.6,1175.2,227.4,1175.1,227.1z"/>
			</g>
			<path class="st42" d="M1190.4,333.5c0.1-1,0.1-2.1-0.1-3.1c-0.2-1-0.6-2-1.4-2.7c-0.2,0.5-0.7,1.2-1.3,1.2
				c-0.4,0-2.5-0.9-2.9-0.7c-0.3,0.1-0.8,4.2-2,5c-1.3,0.9-2.7,1.3-4.1,2c-0.5,0.2-1,0.5-1.3,0.9c-0.4,0.4-0.6,1-0.4,1.5
				c0,0,0,0.1,0.1,0.1h9.2c0.2-0.3,0.4-0.7,0.6-1c0.6-1.2,1.3-2.4,1.9-3.6c0.4,1.5,0.5,3.1,0.4,4.6h1
				C1190.2,336.3,1190.3,334.9,1190.4,333.5z"/>
			<g>
				<path class="st50" d="M1197.2,217.5c-0.8-2.5-2.1-4.9-4.2-6.4c-0.5-0.4-1.2-0.7-1.8-0.4c-0.6,0.2-0.8,0.9-0.9,1.5
					c-1,3.8-0.4,7.8,0.3,11.7l7.7-1.2C1198,220.9,1197.7,219.2,1197.2,217.5z"/>
				<path class="st51" d="M1198.4,225.2c-0.1-0.8-0.1-1.7-0.2-2.5l-7.7,1.2c0.1,0.4,0.1,0.7,0.2,1.1c0.7,3.9,1.4,7.8,2.1,11.7
					c0.3,1.5,0.2,3.2,1.5,4.2c0.9,0.7,2.3,0.8,3.3,0.2c0.9-0.6,1.4-1.6,1.6-2.6c0.2-1,0.1-2.1,0-3.1
					C1198.9,231.9,1198.6,228.6,1198.4,225.2z"/>
				<path class="st51" d="M1178.9,227.4c-0.8-0.4-2.7-1.4-3.2-0.7c-0.4,0.6,0.8,2,1.4,2.5c3.7,3.1,17.1,11.9,18.2,12.1
					c1.8,0.4,5.1-2.8,3.5-4.9C1197.2,234.3,1186.1,231.4,1178.9,227.4z"/>
				<path class="st51" d="M1177.3,225.2c-1.1-0.9-2.2-1.8-3.3-2.7c-0.3,0-0.5,0.4-0.3,0.7c0.1,0.3,0.4,0.4,0.6,0.7
					c0.2,0.2,0.3,0.6,0,0.8c-0.3,0.2-0.6,0-0.8-0.2c-1.1-0.9-2.2-1.8-3.3-2.7c-1,0.5-1.4,1.9-1.1,3c0.3,1.1,1.1,2,2,2.7
					c1.2,1,2.6,1.8,4.1,2.3c0.9,0.3,1.8,0.5,2.7,0.2C1179.9,229,1178.5,226.2,1177.3,225.2z"/>
			</g>
			<path class="st48" d="M1169.7,190.5c0-1.7,1-3.4,2.5-4.2c1.5-0.8,3.4-0.7,4.9,0.2c0.7,0.5,1.4,1.2,2.2,1.4
				c1.1,0.3,2.2-0.2,3.4-0.4c1.7-0.2,3.5,0.6,4.5,2.1c1.9,2.9,0.2,7.2,2.1,10.2c0.8,1.4,2.3,2.2,3.7,2.9c1.4,0.7,3,1.3,4.1,2.4
				c1.2,1.1,1.9,2.8,1.3,4.3c-0.4,1.1-1.4,1.8-2.3,2.4c-1.1,0.7-2.2,1.2-3.4,1.7c-2.8,1.1-5.9-1.4-7.4-4.8c-3.1-1.8-6.4-4.7-8.1-6.8
				c-0.9-1.2-1-2.8-1.7-4.1c-0.7-1.3-1.7-2-3-2.6c-0.9-0.5-1.8-1.5-2.3-2.4C1169.9,192.1,1169.7,191.3,1169.7,190.5z"/>
			<path class="st55" d="M1178,202.1c1.8,2.6,1.3,7.4,1.3,7.5c0.6,0.7,4.3,0.5,6-0.8c-1.7-1.9-2.4-8.7-2.9-9.2
				c-0.6-0.5-1.5-0.4-2.1,0C1179.3,200.3,1178.6,200,1178,202.1z"/>
			<path class="st51" d="M1176,203.6c-0.8-0.7-1.3-1.7-1.8-2.6c-0.7-1.3-1.3-2.6-1.6-4.1c-0.3-1.4-0.2-3,0.7-4.2
				c1-1.5,2.9-2.1,4.6-2.2c1.5-0.1,3.2,0.3,4.2,1.4c0.6,0.6,0.9,1.4,1.3,2.2c0.4,1,0.9,2,1,3.1c0.1,1.2-0.3,2.4-1,3.4
				c-0.6,1-1.5,1.9-2.4,2.7c-0.5,0.5-1,1-1.7,1.2C1178.1,205.1,1176.9,204.4,1176,203.6z"/>
			<path class="st48" d="M1178.3,193c1.1,1.1,1.5,2.8,2.8,3.6c1.1,0.6,2.6,0.3,3.3-0.7c0.6-0.8,0.7-1.8,0.4-2.7
				c-0.3-0.9-0.9-1.7-1.7-2.2c-0.8-0.5-1.7-0.9-2.6-1.2c-1.4-0.4-2.9-0.6-4.3-0.4c-0.9,0.1-1.8,0.5-2.6,1c-0.6,0.4-1.7,1.2-1.6,2
				c0.1,0.8,0.8,0.7,1.3,0.3c0.7-0.5,1.4-0.9,2.3-0.9C1176.7,191.9,1177.6,192.3,1178.3,193z"/>
			<path class="st51" d="M1182.9,195.5c0.2-0.2,0.5-0.4,0.7-0.5c0.3-0.1,0.6-0.1,0.8,0c0.3,0.2,0.5,0.6,0.5,1c0.1,1-0.4,1.9-1.4,2.1
				c-0.8,0.1-1.3-0.4-1.4-1.1C1182.1,196.4,1182.5,195.9,1182.9,195.5z"/>
		</g>
	</g>
	<g>
		<path class="st56" d="M1056.1,306.9l4.6,8.2c0.6,1,1.4,1.9,2.4,2.6l7.1,4.7c1.3,0.9,2.3,2.2,2.9,3.7l1.1,3l0.2-3.4
			c0.1-1.3-0.2-2.7-0.8-3.9l-2.9-5.7c-0.6-1.2-0.9-2.6-0.8-4l0,0c0.3-4.2-2.9-7.8-7.1-7.9L1056.1,306.9z"/>
		<path class="st56" d="M1081.2,315l0.2,0.3c0.7,0.9,1.6,1.5,2.6,1.9l0.2,0.1c2.7,1.1,4.3,3.9,3.8,6.8l-0.9,5l5.3-7.1
			c1.2-1.6,1.5-3.7,0.9-5.6l-0.8-2.4c-0.2-0.6-0.3-1.3-0.3-1.9v-0.9c0-3.5-3-6.3-6.5-6.1l0,0C1080.7,305.4,1078.1,311.1,1081.2,315z
			"/>
		<path class="st31" d="M1092.2,297.6c-12.5-2.4-19.9-6.9-26.8-6.9c-6.2,0-10.7,4.8-10.7,10.7c0,5.9,4.8,10.7,10.7,10.7h25.2
			c4,0,7.3-3.3,7.3-7.3l0,0C1097.8,301.3,1095.5,298.4,1092.2,297.6z"/>
		<path class="st31" d="M1061.3,308.8l-0.2,5.4c-0.1,2-1.2,3.9-2.9,4.9l-2,1.2c-1.5,0.9-2.5,2.4-2.8,4.2l-0.5,3.3l1.4-2.4
			c0.8-1.5,2.3-2.5,3.9-2.9l7.1-1.5c1.7-0.4,3.2-1.5,4-3l3.3-6.1c1.9-3.4,0-7.7-3.8-8.7l0,0C1065,302.3,1061.4,305,1061.3,308.8z"/>
		<path class="st56" d="M1096.6,300.6c7.5-1.3,15.1-6.7,22.7-15.2c-2.1,19.7-13.2,19.7-21.8,17.2L1096.6,300.6z"/>
		<path class="st31" d="M1086.6,314.3l2.6,3.2c0.7,0.9,1.8,1.6,2.9,1.9l5.3,1.4c1.6,0.4,2.9,1.5,3.6,2.9l3.4,6.9v-8.8
			c0-1.5-0.6-3-1.7-4l-3.2-3.1c-1.1-1.1-1.7-2.5-1.7-4v-5.9l-7.1,0.4C1086,305.4,1083.7,310.8,1086.6,314.3z"/>
		<path class="st56" d="M1054.6,301.4l-0.1-21.4l10.4,1.3l3,9.6C1065.4,299.7,1054.6,304,1054.6,301.4z"/>
		<g>
			<path class="st11" d="M1055.7,302.4c-0.1,0-0.2,0-0.4,0c-0.7-0.1-1.1-0.5-1.1-1h0.6c0,0.1,0,0.4,0.5,0.4
				c2.2,0.3,10.1-3.6,12.2-11l0.6,0.2C1066.1,298.3,1058.7,302.4,1055.7,302.4z"/>
		</g>
		<path class="st56" d="M1056.9,277.8l0.3-10.5c4.8,1.3,4.1,7.4,4.6,11.1L1056.9,277.8z"/>
		<path class="st31" d="M1059.5,276.6c-7.6-0.2-3.9,4.8-13.4,4.8c-0.5,0-1,0.4-1,1l0,0c0,0.4,0.3,0.8,0.6,0.9l11.5,4.3l0,0
			c0.7,0.3,1.4,0.4,2.1,0.4c3.2,0,5.9-2.7,5.7-6C1064.9,279,1062.4,276.6,1059.5,276.6z"/>
		<path class="st31" d="M1060.6,278.2l4.5-9.5c3.9,3.1,0.9,8.4-0.2,12L1060.6,278.2z"/>
		<path class="st56" d="M1045.2,281.9c0.1-0.7,0.5-1.5,1.2-1.5c0.6,0,1,0.3,1.3,0.9C1047.4,281.8,1045,282.9,1045.2,281.9z"/>
	</g>
</g>
</svg>
